# MagicaVoxel @ Ephtracy

# material
mtllib Skin008.mtl
usemtl palette

# normals
vn -1 0 0
vn 1 0 0
vn 0 0 1
vn 0 0 -1
vn 0 -1 0
vn 0 1 0

# texcoords
vt 0.0136719 0.5
vt 0.0175781 0.5
vt 0.0644531 0.5
vt 0.263672 0.5
vt 0.705078 0.5
vt 0.779297 0.5
vt 0.853516 0.5
vt 0.958984 0.5

# verts
v -48 0 48
v -48 0 -48
v -48 96 48
v -48 96 -48
v 48 0 48
v 48 0 -48
v 48 96 48
v 48 96 -48
v -48 0 48
v -48 96 48
v 48 0 48
v 48 96 48
v -48 0 -48
v -48 96 -48
v 48 0 -48
v 48 96 -48
v -48 0 48
v 48 0 48
v -48 0 -48
v 48 0 -48
v -48 96 48
v 48 96 48
v -48 96 -48
v 48 96 -48

# faces
f 3/8/1 2/8/1 1/8/1
f 4/8/1 2/8/1 3/8/1
f 5/8/2 6/8/2 7/8/2
f 7/8/2 6/8/2 8/8/2
f 11/8/3 10/8/3 9/8/3
f 12/8/3 10/8/3 11/8/3
f 13/8/4 14/8/4 15/8/4
f 15/8/4 14/8/4 16/8/4
f 19/8/5 18/8/5 17/8/5
f 20/8/5 18/8/5 19/8/5
f 21/8/6 22/8/6 23/8/6
f 23/8/6 22/8/6 24/8/6
