# MagicaVoxel @ Ephtracy

# material
mtllib Skin009.mtl
usemtl palette

# normals
vn -1 0 0
vn 1 0 0
vn 0 0 1
vn 0 0 -1
vn 0 -1 0
vn 0 1 0

# texcoords
vt 0.0136719 0.5
vt 0.0175781 0.5
vt 0.0644531 0.5
vt 0.263672 0.5
vt 0.705078 0.5
vt 0.779297 0.5
vt 0.853516 0.5
vt 0.958984 0.5
vt 0.994141 0.5

# verts
v -48 0 48
v -48 0 -48
v -48 96 48
v -48 96 -48
v 48 0 48
v 48 0 -48
v 48 96 48
v 48 96 -48
v -48 0 48
v -48 96 48
v 48 0 48
v 48 96 48
v -48 0 -48
v -48 96 -48
v 48 0 -48
v 48 96 -48
v -48 0 48
v 48 0 48
v -48 0 -48
v 48 0 -48
v -48 96 48
v 48 96 48
v -48 96 -48
v 48 96 -48

# faces
f 3/9/1 2/9/1 1/9/1
f 4/9/1 2/9/1 3/9/1
f 5/9/2 6/9/2 7/9/2
f 7/9/2 6/9/2 8/9/2
f 11/9/3 10/9/3 9/9/3
f 12/9/3 10/9/3 11/9/3
f 13/9/4 14/9/4 15/9/4
f 15/9/4 14/9/4 16/9/4
f 19/9/5 18/9/5 17/9/5
f 20/9/5 18/9/5 19/9/5
f 21/9/6 22/9/6 23/9/6
f 23/9/6 22/9/6 24/9/6
