# MagicaVoxel @ Ephtracy

# material
mtllib Skin018.mtl
usemtl palette

# normals
vn -1 0 0
vn 1 0 0
vn 0 0 1
vn 0 0 -1
vn 0 -1 0
vn 0 1 0

# texcoords
vt 0.0214844 0.5
vt 0.0644531 0.5
vt 0.306641 0.5
vt 0.525391 0.5
vt 0.798828 0.5
vt 0.845703 0.5
vt 0.892578 0.5
vt 0.935547 0.5

# verts
v -48 0 48
v -48 0 -48
v -48 5 43
v -48 5 -44
v -48 12 36
v -48 12 -36
v -48 20 28
v -48 20 -29
v -48 27 21
v -48 27 -22
v -48 34 14
v -48 34 -15
v -48 41 7
v -48 41 -8
v -48 56 7
v -48 56 -8
v -48 63 14
v -48 63 -15
v -48 70 21
v -48 70 -22
v -48 77 28
v -48 77 -29
v -48 84 36
v -48 84 -36
v -48 92 43
v -48 92 -44
v -48 96 48
v -48 96 -48
v -43 68 45
v -43 68 43
v -43 70 45
v -43 70 43
v 46 27 45
v 46 27 43
v 46 29 45
v 46 29 43
v 46 68 43
v 46 68 40
v 46 70 43
v 46 70 40
v -45 68 45
v -45 68 43
v -45 70 45
v -45 70 43
v 44 27 45
v 44 27 43
v 44 29 45
v 44 29 43
v 44 68 43
v 44 68 40
v 44 70 43
v 44 70 40
v 48 0 48
v 48 0 -48
v 48 5 43
v 48 5 -44
v 48 12 36
v 48 12 -36
v 48 20 28
v 48 20 -29
v 48 27 21
v 48 27 -22
v 48 34 14
v 48 34 -15
v 48 41 7
v 48 41 -8
v 48 56 7
v 48 56 -8
v 48 63 14
v 48 63 -15
v 48 70 21
v 48 70 -22
v 48 77 28
v 48 77 -29
v 48 84 36
v 48 84 -36
v 48 92 43
v 48 92 -44
v 48 96 48
v 48 96 -48
v -48 0 48
v -48 96 48
v -43 5 48
v -43 92 48
v -36 12 48
v -36 84 48
v -28 20 48
v -28 77 48
v -21 27 48
v -21 70 48
v -14 34 48
v -14 63 48
v -7 41 48
v -7 56 48
v 8 41 48
v 8 56 48
v 15 34 48
v 15 63 48
v 22 27 48
v 22 70 48
v 29 20 48
v 29 77 48
v 36 12 48
v 36 84 48
v 44 5 48
v 44 92 48
v 48 0 48
v 48 96 48
v -45 68 43
v -45 70 43
v -43 68 43
v -43 70 43
v 44 27 43
v 44 29 43
v 46 27 43
v 46 29 43
v 44 68 40
v 44 70 40
v 46 68 40
v 46 70 40
v -45 68 45
v -45 70 45
v -43 68 45
v -43 70 45
v 44 27 45
v 44 29 45
v 46 27 45
v 46 29 45
v 44 68 43
v 44 70 43
v 46 68 43
v 46 70 43
v -48 0 -48
v -48 96 -48
v -43 5 -48
v -43 92 -48
v -36 12 -48
v -36 84 -48
v -28 20 -48
v -28 77 -48
v -21 27 -48
v -21 70 -48
v -14 34 -48
v -14 63 -48
v -7 41 -48
v -7 56 -48
v 8 41 -48
v 8 56 -48
v 15 34 -48
v 15 63 -48
v 22 27 -48
v 22 70 -48
v 29 20 -48
v 29 77 -48
v 36 12 -48
v 36 84 -48
v 44 5 -48
v 44 92 -48
v 48 0 -48
v 48 96 -48
v -48 0 48
v 48 0 48
v -43 0 43
v 44 0 43
v -36 0 36
v 36 0 36
v -28 0 28
v 29 0 28
v -21 0 21
v 22 0 21
v -14 0 14
v 15 0 14
v -7 0 7
v 8 0 7
v -7 0 -8
v 8 0 -8
v -14 0 -15
v 15 0 -15
v -21 0 -22
v 22 0 -22
v -28 0 -29
v 29 0 -29
v -36 0 -36
v 36 0 -36
v -43 0 -44
v 44 0 -44
v -48 0 -48
v 48 0 -48
v 44 29 45
v 46 29 45
v 44 29 43
v 46 29 43
v -45 70 45
v -43 70 45
v -45 70 43
v -43 70 43
v 44 70 43
v 46 70 43
v 44 70 40
v 46 70 40
v 44 27 45
v 46 27 45
v 44 27 43
v 46 27 43
v -45 68 45
v -43 68 45
v -45 68 43
v -43 68 43
v 44 68 43
v 46 68 43
v 44 68 40
v 46 68 40
v -48 96 48
v 48 96 48
v -43 96 43
v 44 96 43
v -36 96 36
v 36 96 36
v -28 96 28
v 29 96 28
v -21 96 21
v 22 96 21
v -14 96 14
v 15 96 14
v -7 96 7
v 8 96 7
v -7 96 -8
v 8 96 -8
v -14 96 -15
v 15 96 -15
v -21 96 -22
v 22 96 -22
v -28 96 -29
v 29 96 -29
v -36 96 -36
v 36 96 -36
v -43 96 -44
v 44 96 -44
v -48 96 -48
v 48 96 -48

# faces
f 3/4/1 2/4/1 1/4/1
f 4/4/1 2/4/1 3/4/1
f 5/6/1 4/6/1 3/6/1
f 6/6/1 4/6/1 5/6/1
f 7/2/1 6/2/1 5/2/1
f 8/2/1 6/2/1 7/2/1
f 9/1/1 8/1/1 7/1/1
f 10/1/1 8/1/1 9/1/1
f 11/7/1 10/7/1 9/7/1
f 12/7/1 10/7/1 11/7/1
f 13/5/1 12/5/1 11/5/1
f 14/5/1 12/5/1 13/5/1
f 15/5/1 13/5/1 11/5/1
f 15/8/1 14/8/1 13/8/1
f 16/5/1 12/5/1 14/5/1
f 16/8/1 14/8/1 15/8/1
f 17/7/1 11/7/1 9/7/1
f 17/5/1 15/5/1 11/5/1
f 17/5/1 16/5/1 15/5/1
f 18/5/1 12/5/1 16/5/1
f 18/5/1 16/5/1 17/5/1
f 18/7/1 10/7/1 12/7/1
f 19/1/1 9/1/1 7/1/1
f 19/7/1 17/7/1 9/7/1
f 19/7/1 18/7/1 17/7/1
f 20/7/1 10/7/1 18/7/1
f 20/7/1 18/7/1 19/7/1
f 20/1/1 8/1/1 10/1/1
f 21/2/1 7/2/1 5/2/1
f 21/1/1 19/1/1 7/1/1
f 21/1/1 20/1/1 19/1/1
f 22/1/1 8/1/1 20/1/1
f 22/1/1 20/1/1 21/1/1
f 22/2/1 6/2/1 8/2/1
f 23/6/1 5/6/1 3/6/1
f 23/2/1 21/2/1 5/2/1
f 23/2/1 22/2/1 21/2/1
f 24/2/1 6/2/1 22/2/1
f 24/2/1 22/2/1 23/2/1
f 24/6/1 4/6/1 6/6/1
f 25/4/1 3/4/1 1/4/1
f 25/6/1 23/6/1 3/6/1
f 25/6/1 24/6/1 23/6/1
f 26/6/1 4/6/1 24/6/1
f 26/6/1 24/6/1 25/6/1
f 26/4/1 2/4/1 4/4/1
f 27/4/1 25/4/1 1/4/1
f 27/4/1 26/4/1 25/4/1
f 28/4/1 2/4/1 26/4/1
f 28/4/1 26/4/1 27/4/1
f 31/3/1 30/3/1 29/3/1
f 32/3/1 30/3/1 31/3/1
f 35/4/1 34/4/1 33/4/1
f 36/4/1 34/4/1 35/4/1
f 39/6/1 38/6/1 37/6/1
f 40/6/1 38/6/1 39/6/1
f 41/4/2 42/4/2 43/4/2
f 43/4/2 42/4/2 44/4/2
f 45/3/2 46/3/2 47/3/2
f 47/3/2 46/3/2 48/3/2
f 49/3/2 50/3/2 51/3/2
f 51/3/2 50/3/2 52/3/2
f 53/4/2 54/4/2 55/4/2
f 55/4/2 54/4/2 56/4/2
f 55/6/2 56/6/2 57/6/2
f 57/6/2 56/6/2 58/6/2
f 57/2/2 58/2/2 59/2/2
f 59/2/2 58/2/2 60/2/2
f 59/1/2 60/1/2 61/1/2
f 61/1/2 60/1/2 62/1/2
f 61/7/2 62/7/2 63/7/2
f 63/7/2 62/7/2 64/7/2
f 63/5/2 64/5/2 65/5/2
f 65/5/2 64/5/2 66/5/2
f 63/5/2 65/5/2 67/5/2
f 65/8/2 66/8/2 67/8/2
f 66/5/2 64/5/2 68/5/2
f 67/8/2 66/8/2 68/8/2
f 61/7/2 63/7/2 69/7/2
f 63/5/2 67/5/2 69/5/2
f 67/5/2 68/5/2 69/5/2
f 68/5/2 64/5/2 70/5/2
f 69/5/2 68/5/2 70/5/2
f 64/7/2 62/7/2 70/7/2
f 59/1/2 61/1/2 71/1/2
f 61/7/2 69/7/2 71/7/2
f 69/7/2 70/7/2 71/7/2
f 70/7/2 62/7/2 72/7/2
f 71/7/2 70/7/2 72/7/2
f 62/1/2 60/1/2 72/1/2
f 57/2/2 59/2/2 73/2/2
f 59/1/2 71/1/2 73/1/2
f 71/1/2 72/1/2 73/1/2
f 72/1/2 60/1/2 74/1/2
f 73/1/2 72/1/2 74/1/2
f 60/2/2 58/2/2 74/2/2
f 55/6/2 57/6/2 75/6/2
f 57/2/2 73/2/2 75/2/2
f 73/2/2 74/2/2 75/2/2
f 74/2/2 58/2/2 76/2/2
f 75/2/2 74/2/2 76/2/2
f 58/6/2 56/6/2 76/6/2
f 53/4/2 55/4/2 77/4/2
f 55/6/2 75/6/2 77/6/2
f 75/6/2 76/6/2 77/6/2
f 76/6/2 56/6/2 78/6/2
f 77/6/2 76/6/2 78/6/2
f 56/4/2 54/4/2 78/4/2
f 53/4/2 77/4/2 79/4/2
f 77/4/2 78/4/2 79/4/2
f 78/4/2 54/4/2 80/4/2
f 79/4/2 78/4/2 80/4/2
f 83/4/3 82/4/3 81/4/3
f 84/4/3 82/4/3 83/4/3
f 85/6/3 84/6/3 83/6/3
f 86/6/3 84/6/3 85/6/3
f 87/2/3 86/2/3 85/2/3
f 88/2/3 86/2/3 87/2/3
f 89/1/3 88/1/3 87/1/3
f 90/1/3 88/1/3 89/1/3
f 91/7/3 90/7/3 89/7/3
f 92/7/3 90/7/3 91/7/3
f 93/5/3 92/5/3 91/5/3
f 94/5/3 92/5/3 93/5/3
f 95/5/3 93/5/3 91/5/3
f 95/8/3 94/8/3 93/8/3
f 96/5/3 92/5/3 94/5/3
f 96/8/3 94/8/3 95/8/3
f 97/7/3 91/7/3 89/7/3
f 97/5/3 95/5/3 91/5/3
f 97/5/3 96/5/3 95/5/3
f 98/5/3 92/5/3 96/5/3
f 98/5/3 96/5/3 97/5/3
f 98/7/3 90/7/3 92/7/3
f 99/1/3 89/1/3 87/1/3
f 99/7/3 97/7/3 89/7/3
f 99/7/3 98/7/3 97/7/3
f 100/7/3 90/7/3 98/7/3
f 100/7/3 98/7/3 99/7/3
f 100/1/3 88/1/3 90/1/3
f 101/2/3 87/2/3 85/2/3
f 101/1/3 99/1/3 87/1/3
f 101/1/3 100/1/3 99/1/3
f 102/1/3 88/1/3 100/1/3
f 102/1/3 100/1/3 101/1/3
f 102/2/3 86/2/3 88/2/3
f 103/6/3 85/6/3 83/6/3
f 103/2/3 101/2/3 85/2/3
f 103/2/3 102/2/3 101/2/3
f 104/2/3 86/2/3 102/2/3
f 104/2/3 102/2/3 103/2/3
f 104/6/3 84/6/3 86/6/3
f 105/4/3 83/4/3 81/4/3
f 105/6/3 103/6/3 83/6/3
f 105/6/3 104/6/3 103/6/3
f 106/6/3 84/6/3 104/6/3
f 106/6/3 104/6/3 105/6/3
f 106/4/3 82/4/3 84/4/3
f 107/4/3 105/4/3 81/4/3
f 107/4/3 106/4/3 105/4/3
f 108/4/3 82/4/3 106/4/3
f 108/4/3 106/4/3 107/4/3
f 111/3/3 110/3/3 109/3/3
f 112/3/3 110/3/3 111/3/3
f 115/3/3 114/3/3 113/3/3
f 116/3/3 114/3/3 115/3/3
f 119/3/3 118/3/3 117/3/3
f 120/3/3 118/3/3 119/3/3
f 121/4/4 122/4/4 123/4/4
f 123/4/4 122/4/4 124/4/4
f 125/4/4 126/4/4 127/4/4
f 127/4/4 126/4/4 128/4/4
f 129/3/4 130/3/4 131/3/4
f 131/3/4 130/3/4 132/3/4
f 133/4/4 134/4/4 135/4/4
f 135/4/4 134/4/4 136/4/4
f 135/6/4 136/6/4 137/6/4
f 137/6/4 136/6/4 138/6/4
f 137/2/4 138/2/4 139/2/4
f 139/2/4 138/2/4 140/2/4
f 139/1/4 140/1/4 141/1/4
f 141/1/4 140/1/4 142/1/4
f 141/7/4 142/7/4 143/7/4
f 143/7/4 142/7/4 144/7/4
f 143/5/4 144/5/4 145/5/4
f 145/5/4 144/5/4 146/5/4
f 143/5/4 145/5/4 147/5/4
f 145/8/4 146/8/4 147/8/4
f 146/5/4 144/5/4 148/5/4
f 147/8/4 146/8/4 148/8/4
f 141/7/4 143/7/4 149/7/4
f 143/5/4 147/5/4 149/5/4
f 147/5/4 148/5/4 149/5/4
f 148/5/4 144/5/4 150/5/4
f 149/5/4 148/5/4 150/5/4
f 144/7/4 142/7/4 150/7/4
f 139/1/4 141/1/4 151/1/4
f 141/7/4 149/7/4 151/7/4
f 149/7/4 150/7/4 151/7/4
f 150/7/4 142/7/4 152/7/4
f 151/7/4 150/7/4 152/7/4
f 142/1/4 140/1/4 152/1/4
f 137/2/4 139/2/4 153/2/4
f 139/1/4 151/1/4 153/1/4
f 151/1/4 152/1/4 153/1/4
f 152/1/4 140/1/4 154/1/4
f 153/1/4 152/1/4 154/1/4
f 140/2/4 138/2/4 154/2/4
f 135/6/4 137/6/4 155/6/4
f 137/2/4 153/2/4 155/2/4
f 153/2/4 154/2/4 155/2/4
f 154/2/4 138/2/4 156/2/4
f 155/2/4 154/2/4 156/2/4
f 138/6/4 136/6/4 156/6/4
f 133/4/4 135/4/4 157/4/4
f 135/6/4 155/6/4 157/6/4
f 155/6/4 156/6/4 157/6/4
f 156/6/4 136/6/4 158/6/4
f 157/6/4 156/6/4 158/6/4
f 136/4/4 134/4/4 158/4/4
f 133/4/4 157/4/4 159/4/4
f 157/4/4 158/4/4 159/4/4
f 158/4/4 134/4/4 160/4/4
f 159/4/4 158/4/4 160/4/4
f 163/4/5 162/4/5 161/4/5
f 164/4/5 162/4/5 163/4/5
f 165/6/5 164/6/5 163/6/5
f 166/6/5 164/6/5 165/6/5
f 167/2/5 166/2/5 165/2/5
f 168/2/5 166/2/5 167/2/5
f 169/1/5 168/1/5 167/1/5
f 170/1/5 168/1/5 169/1/5
f 171/7/5 170/7/5 169/7/5
f 172/7/5 170/7/5 171/7/5
f 173/5/5 172/5/5 171/5/5
f 174/5/5 172/5/5 173/5/5
f 175/5/5 173/5/5 171/5/5
f 175/8/5 174/8/5 173/8/5
f 176/5/5 172/5/5 174/5/5
f 176/8/5 174/8/5 175/8/5
f 177/7/5 171/7/5 169/7/5
f 177/5/5 175/5/5 171/5/5
f 177/5/5 176/5/5 175/5/5
f 178/5/5 172/5/5 176/5/5
f 178/5/5 176/5/5 177/5/5
f 178/7/5 170/7/5 172/7/5
f 179/1/5 169/1/5 167/1/5
f 179/7/5 177/7/5 169/7/5
f 179/7/5 178/7/5 177/7/5
f 180/7/5 170/7/5 178/7/5
f 180/7/5 178/7/5 179/7/5
f 180/1/5 168/1/5 170/1/5
f 181/2/5 167/2/5 165/2/5
f 181/1/5 179/1/5 167/1/5
f 181/1/5 180/1/5 179/1/5
f 182/1/5 168/1/5 180/1/5
f 182/1/5 180/1/5 181/1/5
f 182/2/5 166/2/5 168/2/5
f 183/6/5 165/6/5 163/6/5
f 183/2/5 181/2/5 165/2/5
f 183/2/5 182/2/5 181/2/5
f 184/2/5 166/2/5 182/2/5
f 184/2/5 182/2/5 183/2/5
f 184/6/5 164/6/5 166/6/5
f 185/4/5 163/4/5 161/4/5
f 185/6/5 183/6/5 163/6/5
f 185/6/5 184/6/5 183/6/5
f 186/6/5 164/6/5 184/6/5
f 186/6/5 184/6/5 185/6/5
f 186/4/5 162/4/5 164/4/5
f 187/4/5 185/4/5 161/4/5
f 187/4/5 186/4/5 185/4/5
f 188/4/5 162/4/5 186/4/5
f 188/4/5 186/4/5 187/4/5
f 191/3/5 190/3/5 189/3/5
f 192/3/5 190/3/5 191/3/5
f 195/3/5 194/3/5 193/3/5
f 196/3/5 194/3/5 195/3/5
f 199/3/5 198/3/5 197/3/5
f 200/3/5 198/3/5 199/3/5
f 201/3/6 202/3/6 203/3/6
f 203/3/6 202/3/6 204/3/6
f 205/3/6 206/3/6 207/3/6
f 207/3/6 206/3/6 208/3/6
f 209/3/6 210/3/6 211/3/6
f 211/3/6 210/3/6 212/3/6
f 213/4/6 214/4/6 215/4/6
f 215/4/6 214/4/6 216/4/6
f 215/6/6 216/6/6 217/6/6
f 217/6/6 216/6/6 218/6/6
f 217/2/6 218/2/6 219/2/6
f 219/2/6 218/2/6 220/2/6
f 219/1/6 220/1/6 221/1/6
f 221/1/6 220/1/6 222/1/6
f 221/7/6 222/7/6 223/7/6
f 223/7/6 222/7/6 224/7/6
f 223/5/6 224/5/6 225/5/6
f 225/5/6 224/5/6 226/5/6
f 223/5/6 225/5/6 227/5/6
f 225/8/6 226/8/6 227/8/6
f 226/5/6 224/5/6 228/5/6
f 227/8/6 226/8/6 228/8/6
f 221/7/6 223/7/6 229/7/6
f 223/5/6 227/5/6 229/5/6
f 227/5/6 228/5/6 229/5/6
f 228/5/6 224/5/6 230/5/6
f 229/5/6 228/5/6 230/5/6
f 224/7/6 222/7/6 230/7/6
f 219/1/6 221/1/6 231/1/6
f 221/7/6 229/7/6 231/7/6
f 229/7/6 230/7/6 231/7/6
f 230/7/6 222/7/6 232/7/6
f 231/7/6 230/7/6 232/7/6
f 222/1/6 220/1/6 232/1/6
f 217/2/6 219/2/6 233/2/6
f 219/1/6 231/1/6 233/1/6
f 231/1/6 232/1/6 233/1/6
f 232/1/6 220/1/6 234/1/6
f 233/1/6 232/1/6 234/1/6
f 220/2/6 218/2/6 234/2/6
f 215/6/6 217/6/6 235/6/6
f 217/2/6 233/2/6 235/2/6
f 233/2/6 234/2/6 235/2/6
f 234/2/6 218/2/6 236/2/6
f 235/2/6 234/2/6 236/2/6
f 218/6/6 216/6/6 236/6/6
f 213/4/6 215/4/6 237/4/6
f 215/6/6 235/6/6 237/6/6
f 235/6/6 236/6/6 237/6/6
f 236/6/6 216/6/6 238/6/6
f 237/6/6 236/6/6 238/6/6
f 216/4/6 214/4/6 238/4/6
f 213/4/6 237/4/6 239/4/6
f 237/4/6 238/4/6 239/4/6
f 238/4/6 214/4/6 240/4/6
f 239/4/6 238/4/6 240/4/6
