# MagicaVoxel @ Ephtracy

# material
mtllib Skin027.mtl
usemtl palette

# normals
vn -1 0 0
vn 1 0 0
vn 0 0 1
vn 0 0 -1
vn 0 -1 0
vn 0 1 0

# texcoords
vt 0.845703 0.5
vt 0.958984 0.5
vt 0.966797 0.5

# verts
v -48 0 17
v -48 0 16
v -48 0 -15
v -48 1 16
v -48 1 -15
v -48 76 17
v -48 76 -15
v -48 95 -14
v -48 95 -15
v -48 96 17
v -48 96 -14
v -48 96 -15
v 16 32 17
v 16 32 -15
v 16 76 17
v 16 76 -15
v 16 96 17
v 16 96 -15
v -16 32 17
v -16 32 -15
v -16 76 17
v -16 76 -15
v -16 96 17
v -16 96 -15
v 48 0 17
v 48 0 -15
v 48 76 17
v 48 76 -15
v 48 96 17
v 48 96 -15
v -48 0 17
v -48 76 17
v -48 96 17
v -16 32 17
v -16 76 17
v -16 96 17
v 16 32 17
v 16 76 17
v 16 96 17
v 48 0 17
v 48 76 17
v 48 96 17
v -48 0 -15
v -48 1 -15
v -48 76 -15
v -48 95 -15
v -48 96 -15
v -47 0 -15
v -47 1 -15
v -17 95 -15
v -17 96 -15
v -16 32 -15
v -16 76 -15
v -16 96 -15
v 16 32 -15
v 16 76 -15
v 16 96 -15
v 48 0 -15
v 48 76 -15
v 48 96 -15
v -48 0 17
v 48 0 17
v -48 0 16
v -47 0 16
v -48 0 -15
v -47 0 -15
v 48 0 -15
v -16 32 17
v 16 32 17
v -16 32 -15
v 16 32 -15
v -48 96 17
v -16 96 17
v 16 96 17
v 48 96 17
v -48 96 -14
v -17 96 -14
v -48 96 -15
v -17 96 -15
v -16 96 -15
v 16 96 -15
v 48 96 -15

# faces
f 4/1/1 2/1/1 1/1/1
f 4/2/1 3/2/1 2/2/1
f 5/2/1 3/2/1 4/2/1
f 6/1/1 4/1/1 1/1/1
f 6/1/1 5/1/1 4/1/1
f 7/1/1 5/1/1 6/1/1
f 8/2/1 7/2/1 6/2/1
f 9/2/1 7/2/1 8/2/1
f 10/2/1 8/2/1 6/2/1
f 11/3/1 9/3/1 8/3/1
f 11/2/1 8/2/1 10/2/1
f 12/3/1 9/3/1 11/3/1
f 15/1/1 14/1/1 13/1/1
f 16/1/1 14/1/1 15/1/1
f 17/2/1 16/2/1 15/2/1
f 18/2/1 16/2/1 17/2/1
f 19/1/2 20/1/2 21/1/2
f 21/1/2 20/1/2 22/1/2
f 21/2/2 22/2/2 23/2/2
f 23/2/2 22/2/2 24/2/2
f 25/1/2 26/1/2 27/1/2
f 27/1/2 26/1/2 28/1/2
f 27/2/2 28/2/2 29/2/2
f 29/2/2 28/2/2 30/2/2
f 34/1/3 32/1/3 31/1/3
f 35/2/3 33/2/3 32/2/3
f 35/1/3 32/1/3 34/1/3
f 36/2/3 33/2/3 35/2/3
f 37/1/3 34/1/3 31/1/3
f 40/1/3 37/1/3 31/1/3
f 40/1/3 38/1/3 37/1/3
f 41/2/3 39/2/3 38/2/3
f 41/1/3 38/1/3 40/1/3
f 42/2/3 39/2/3 41/2/3
f 43/2/4 44/2/4 48/2/4
f 44/1/4 45/1/4 49/1/4
f 48/2/4 44/2/4 49/2/4
f 46/3/4 47/3/4 50/3/4
f 45/2/4 46/2/4 50/2/4
f 50/3/4 47/3/4 51/3/4
f 49/1/4 45/1/4 52/1/4
f 48/1/4 49/1/4 52/1/4
f 50/2/4 51/2/4 53/2/4
f 52/1/4 45/1/4 53/1/4
f 45/2/4 50/2/4 53/2/4
f 53/2/4 51/2/4 54/2/4
f 48/1/4 52/1/4 55/1/4
f 48/1/4 55/1/4 58/1/4
f 55/1/4 56/1/4 58/1/4
f 56/2/4 57/2/4 59/2/4
f 58/1/4 56/1/4 59/1/4
f 59/2/4 57/2/4 60/2/4
f 63/1/5 62/1/5 61/1/5
f 64/1/5 62/1/5 63/1/5
f 65/2/5 64/2/5 63/2/5
f 66/1/5 62/1/5 64/1/5
f 66/2/5 64/2/5 65/2/5
f 67/1/5 62/1/5 66/1/5
f 68/1/6 69/1/6 70/1/6
f 70/1/6 69/1/6 71/1/6
f 72/2/6 73/2/6 76/2/6
f 76/2/6 73/2/6 77/2/6
f 76/3/6 77/3/6 78/3/6
f 77/2/6 73/2/6 79/2/6
f 78/3/6 77/3/6 79/3/6
f 79/2/6 73/2/6 80/2/6
f 74/2/6 75/2/6 81/2/6
f 81/2/6 75/2/6 82/2/6
