# MagicaVoxel @ Ephtracy

# material
mtllib Skin031.mtl
usemtl palette

# normals
vn -1 0 0
vn 1 0 0
vn 0 0 1
vn 0 0 -1
vn 0 -1 0
vn 0 1 0

# texcoords
vt 0.443359 0.5
vt 0.521484 0.5
vt 0.794922 0.5

# verts
v -48 0 25
v -48 0 -11
v -48 28 25
v -48 28 13
v -48 68 -11
v -48 68 -23
v -48 96 13
v -48 96 -23
v -10 40 4
v -10 40 -16
v -10 60 4
v -10 60 -16
v 20 0 -11
v 20 0 -35
v 20 68 -11
v 20 68 -23
v 20 96 -23
v 20 96 -35
v -20 0 1
v -20 0 -11
v -20 28 13
v -20 28 1
v -20 68 1
v -20 68 -11
v -20 96 13
v -20 96 1
v 10 40 4
v 10 40 -16
v 10 60 4
v 10 60 -16
v 48 0 25
v 48 0 1
v 48 0 -11
v 48 0 -35
v 48 28 25
v 48 28 1
v 48 68 1
v 48 68 -11
v 48 96 1
v 48 96 -35
v -48 0 25
v -48 28 25
v 48 0 25
v 48 28 25
v -48 28 13
v -48 96 13
v -20 28 13
v -20 96 13
v -10 40 4
v -10 60 4
v 10 40 4
v 10 60 4
v -20 68 1
v -20 96 1
v 48 68 1
v 48 96 1
v 20 0 -11
v 20 68 -11
v 48 0 -11
v 48 68 -11
v -20 0 1
v -20 28 1
v 48 0 1
v 48 28 1
v -48 0 -11
v -48 68 -11
v -20 0 -11
v -20 68 -11
v -10 40 -16
v -10 60 -16
v 10 40 -16
v 10 60 -16
v -48 68 -23
v -48 96 -23
v 20 68 -23
v 20 96 -23
v 20 0 -35
v 20 96 -35
v 48 0 -35
v 48 96 -35
v -48 0 25
v 48 0 25
v -20 0 1
v 48 0 1
v -48 0 -11
v -20 0 -11
v 20 0 -11
v 48 0 -11
v 20 0 -35
v 48 0 -35
v -10 40 4
v 10 40 4
v -10 40 -16
v 10 40 -16
v -20 68 1
v 48 68 1
v -48 68 -11
v -20 68 -11
v 20 68 -11
v 48 68 -11
v -48 68 -23
v 20 68 -23
v -48 28 25
v 48 28 25
v -48 28 13
v -20 28 13
v -20 28 1
v 48 28 1
v -10 60 4
v 10 60 4
v -10 60 -16
v 10 60 -16
v -48 96 13
v -20 96 13
v -20 96 1
v 48 96 1
v -48 96 -23
v 20 96 -23
v 20 96 -35
v 48 96 -35

# faces
f 3/3/1 2/3/1 1/3/1
f 4/3/1 2/3/1 3/3/1
f 5/3/1 2/3/1 4/3/1
f 7/3/1 5/3/1 4/3/1
f 7/3/1 6/3/1 5/3/1
f 8/3/1 6/3/1 7/3/1
f 11/1/1 10/1/1 9/1/1
f 12/1/1 10/1/1 11/1/1
f 15/3/1 14/3/1 13/3/1
f 16/3/1 14/3/1 15/3/1
f 17/3/1 14/3/1 16/3/1
f 18/3/1 14/3/1 17/3/1
f 19/3/2 20/3/2 22/3/2
f 22/3/2 20/3/2 23/3/2
f 21/3/2 22/3/2 23/3/2
f 23/3/2 20/3/2 24/3/2
f 21/3/2 23/3/2 25/3/2
f 25/3/2 23/3/2 26/3/2
f 27/1/2 28/1/2 29/1/2
f 29/1/2 28/1/2 30/1/2
f 31/3/2 32/3/2 35/3/2
f 35/3/2 32/3/2 36/3/2
f 33/3/2 34/3/2 38/3/2
f 37/3/2 38/3/2 39/3/2
f 38/3/2 34/3/2 40/3/2
f 39/3/2 38/3/2 40/3/2
f 43/3/3 42/3/3 41/3/3
f 44/3/3 42/3/3 43/3/3
f 47/3/3 46/3/3 45/3/3
f 48/3/3 46/3/3 47/3/3
f 51/1/3 50/1/3 49/1/3
f 52/1/3 50/1/3 51/1/3
f 55/3/3 54/3/3 53/3/3
f 56/3/3 54/3/3 55/3/3
f 59/3/3 58/3/3 57/3/3
f 60/3/3 58/3/3 59/3/3
f 61/3/4 62/3/4 63/3/4
f 63/3/4 62/3/4 64/3/4
f 65/3/4 66/3/4 67/3/4
f 67/3/4 66/3/4 68/3/4
f 69/1/4 70/1/4 71/1/4
f 71/1/4 70/1/4 72/1/4
f 73/3/4 74/3/4 75/3/4
f 75/3/4 74/3/4 76/3/4
f 77/3/4 78/3/4 79/3/4
f 79/3/4 78/3/4 80/3/4
f 83/3/5 82/3/5 81/3/5
f 84/3/5 82/3/5 83/3/5
f 85/3/5 83/3/5 81/3/5
f 86/3/5 83/3/5 85/3/5
f 89/3/5 88/3/5 87/3/5
f 90/3/5 88/3/5 89/3/5
f 93/1/5 92/1/5 91/1/5
f 94/1/5 92/1/5 93/1/5
f 98/3/5 96/3/5 95/3/5
f 99/3/5 96/3/5 98/3/5
f 100/3/5 96/3/5 99/3/5
f 101/3/5 98/3/5 97/3/5
f 101/3/5 99/3/5 98/3/5
f 102/3/5 99/3/5 101/3/5
f 103/3/6 104/3/6 105/3/6
f 105/3/6 104/3/6 106/3/6
f 106/3/6 104/3/6 107/3/6
f 107/3/6 104/3/6 108/3/6
f 109/1/6 110/1/6 111/1/6
f 111/1/6 110/1/6 112/1/6
f 113/3/6 114/3/6 115/3/6
f 113/3/6 115/3/6 117/3/6
f 115/3/6 116/3/6 117/3/6
f 117/3/6 116/3/6 118/3/6
f 118/3/6 116/3/6 119/3/6
f 119/3/6 116/3/6 120/3/6
