# MagicaVoxel @ Ephtracy

# material
mtllib Skin035.mtl
usemtl palette

# normals
vn -1 0 0
vn 1 0 0
vn 0 0 1
vn 0 0 -1
vn 0 -1 0
vn 0 1 0

# texcoords
vt 0.115234 0.5
vt 0.138672 0.5
vt 0.537109 0.5
vt 0.857422 0.5
vt 0.873047 0.5
vt 0.904297 0.5
vt 0.908203 0.5

# verts
v -48 0 48
v -48 0 -48
v -48 10 21
v -48 10 12
v -48 19 21
v -48 19 12
v -48 33 -19
v -48 33 -29
v -48 42 -19
v -48 42 -29
v -48 57 20
v -48 57 11
v -48 66 20
v -48 66 11
v -48 72 48
v -48 72 -48
v -48 75 48
v -48 75 -48
v -48 95 48
v -48 95 -48
v -48 96 48
v -48 96 -48
v 48 0 48
v 48 0 -48
v 48 1 -28
v 48 1 -37
v 48 6 38
v 48 6 29
v 48 10 -28
v 48 10 -37
v 48 15 38
v 48 15 29
v 48 40 7
v 48 40 -2
v 48 49 7
v 48 49 -2
v 48 72 48
v 48 72 -48
v 48 75 48
v 48 75 -48
v 48 95 48
v 48 95 -48
v 48 96 48
v 48 96 -48
v -48 0 48
v -48 72 48
v -48 75 48
v -48 95 48
v -48 96 48
v -35 51 48
v -35 60 48
v -33 8 48
v -33 17 48
v -26 51 48
v -26 60 48
v -24 8 48
v -24 17 48
v 4 26 48
v 4 35 48
v 13 26 48
v 13 35 48
v 28 54 48
v 28 63 48
v 37 54 48
v 37 63 48
v 48 0 48
v 48 72 48
v 48 75 48
v 48 95 48
v 48 96 48
v -48 0 -48
v -48 72 -48
v -48 75 -48
v -48 95 -48
v -48 96 -48
v -39 30 -48
v -39 39 -48
v -29 30 -48
v -29 39 -48
v -2 58 -48
v -2 67 -48
v 7 58 -48
v 7 67 -48
v 24 12 -48
v 24 21 -48
v 33 12 -48
v 33 21 -48
v 48 0 -48
v 48 72 -48
v 48 75 -48
v 48 95 -48
v 48 96 -48
v -48 0 48
v 48 0 48
v -28 0 27
v -19 0 27
v -28 0 18
v -19 0 18
v 24 0 9
v 33 0 9
v 24 0 -0
v 33 0 -0
v -10 0 -23
v -1 0 -23
v -10 0 -32
v -1 0 -32
v -48 0 -48
v 48 0 -48
v -48 96 48
v 48 96 48
v -48 96 -48
v 48 96 -48

# faces
f 3/5/1 2/5/1 1/5/1
f 4/5/1 2/5/1 3/5/1
f 5/5/1 3/5/1 1/5/1
f 5/1/1 4/1/1 3/1/1
f 6/5/1 2/5/1 4/5/1
f 6/1/1 4/1/1 5/1/1
f 7/5/1 6/5/1 5/5/1
f 7/5/1 2/5/1 6/5/1
f 8/5/1 2/5/1 7/5/1
f 9/5/1 7/5/1 5/5/1
f 9/1/1 8/1/1 7/1/1
f 10/5/1 2/5/1 8/5/1
f 10/1/1 8/1/1 9/1/1
f 11/5/1 9/5/1 5/5/1
f 11/5/1 10/5/1 9/5/1
f 12/5/1 10/5/1 11/5/1
f 13/5/1 11/5/1 5/5/1
f 13/1/1 12/1/1 11/1/1
f 14/5/1 10/5/1 12/5/1
f 14/1/1 12/1/1 13/1/1
f 15/5/1 5/5/1 1/5/1
f 15/5/1 13/5/1 5/5/1
f 15/5/1 14/5/1 13/5/1
f 16/5/1 10/5/1 14/5/1
f 16/5/1 14/5/1 15/5/1
f 16/5/1 2/5/1 10/5/1
f 17/1/1 16/1/1 15/1/1
f 18/1/1 16/1/1 17/1/1
f 19/4/1 18/4/1 17/4/1
f 20/4/1 18/4/1 19/4/1
f 21/2/1 20/2/1 19/2/1
f 22/2/1 20/2/1 21/2/1
f 23/5/2 24/5/2 25/5/2
f 25/5/2 24/5/2 26/5/2
f 23/5/2 25/5/2 27/5/2
f 27/5/2 25/5/2 28/5/2
f 25/1/2 26/1/2 29/1/2
f 28/5/2 25/5/2 29/5/2
f 26/5/2 24/5/2 30/5/2
f 29/1/2 26/1/2 30/1/2
f 27/1/2 28/1/2 31/1/2
f 23/5/2 27/5/2 31/5/2
f 28/5/2 29/5/2 32/5/2
f 31/1/2 28/1/2 32/1/2
f 29/5/2 30/5/2 32/5/2
f 31/5/2 32/5/2 33/5/2
f 32/5/2 30/5/2 33/5/2
f 33/5/2 30/5/2 34/5/2
f 31/5/2 33/5/2 35/5/2
f 33/1/2 34/1/2 35/1/2
f 34/5/2 30/5/2 36/5/2
f 35/1/2 34/1/2 36/1/2
f 23/5/2 31/5/2 37/5/2
f 31/5/2 35/5/2 37/5/2
f 35/5/2 36/5/2 37/5/2
f 36/5/2 30/5/2 38/5/2
f 37/5/2 36/5/2 38/5/2
f 30/5/2 24/5/2 38/5/2
f 37/1/2 38/1/2 39/1/2
f 39/1/2 38/1/2 40/1/2
f 39/4/2 40/4/2 41/4/2
f 41/4/2 40/4/2 42/4/2
f 41/2/2 42/2/2 43/2/2
f 43/2/2 42/2/2 44/2/2
f 50/5/3 46/5/3 45/5/3
f 51/5/3 46/5/3 50/5/3
f 52/5/3 50/5/3 45/5/3
f 53/5/3 50/5/3 52/5/3
f 54/1/3 51/1/3 50/1/3
f 54/5/3 50/5/3 53/5/3
f 55/5/3 46/5/3 51/5/3
f 55/1/3 51/1/3 54/1/3
f 56/1/3 53/1/3 52/1/3
f 56/5/3 52/5/3 45/5/3
f 57/5/3 54/5/3 53/5/3
f 57/1/3 53/1/3 56/1/3
f 57/5/3 55/5/3 54/5/3
f 58/5/3 57/5/3 56/5/3
f 58/5/3 55/5/3 57/5/3
f 59/5/3 55/5/3 58/5/3
f 60/5/3 58/5/3 56/5/3
f 60/1/3 59/1/3 58/1/3
f 61/5/3 55/5/3 59/5/3
f 61/1/3 59/1/3 60/1/3
f 62/5/3 61/5/3 60/5/3
f 62/5/3 55/5/3 61/5/3
f 63/5/3 46/5/3 55/5/3
f 63/5/3 55/5/3 62/5/3
f 64/5/3 62/5/3 60/5/3
f 64/1/3 63/1/3 62/1/3
f 65/5/3 46/5/3 63/5/3
f 65/1/3 63/1/3 64/1/3
f 66/5/3 56/5/3 45/5/3
f 66/5/3 64/5/3 60/5/3
f 66/5/3 65/5/3 64/5/3
f 66/5/3 60/5/3 56/5/3
f 67/1/3 47/1/3 46/1/3
f 67/5/3 65/5/3 66/5/3
f 67/5/3 46/5/3 65/5/3
f 68/4/3 48/4/3 47/4/3
f 68/1/3 47/1/3 67/1/3
f 69/2/3 49/2/3 48/2/3
f 69/4/3 48/4/3 68/4/3
f 70/2/3 49/2/3 69/2/3
f 71/5/4 72/5/4 76/5/4
f 76/5/4 72/5/4 77/5/4
f 71/5/4 76/5/4 78/5/4
f 76/1/4 77/1/4 78/1/4
f 77/5/4 72/5/4 79/5/4
f 78/1/4 77/1/4 79/1/4
f 78/5/4 79/5/4 80/5/4
f 79/5/4 72/5/4 80/5/4
f 80/5/4 72/5/4 81/5/4
f 78/5/4 80/5/4 82/5/4
f 80/1/4 81/1/4 82/1/4
f 81/5/4 72/5/4 83/5/4
f 82/1/4 81/1/4 83/1/4
f 71/5/4 78/5/4 84/5/4
f 78/5/4 82/5/4 84/5/4
f 82/5/4 83/5/4 84/5/4
f 84/5/4 83/5/4 85/5/4
f 71/5/4 84/5/4 86/5/4
f 84/1/4 85/1/4 86/1/4
f 85/5/4 83/5/4 87/5/4
f 86/1/4 85/1/4 87/1/4
f 71/5/4 86/5/4 88/5/4
f 86/5/4 87/5/4 88/5/4
f 72/1/4 73/1/4 89/1/4
f 88/5/4 87/5/4 89/5/4
f 83/5/4 72/5/4 89/5/4
f 87/5/4 83/5/4 89/5/4
f 73/4/4 74/4/4 90/4/4
f 89/1/4 73/1/4 90/1/4
f 74/2/4 75/2/4 91/2/4
f 90/4/4 74/4/4 91/4/4
f 91/2/4 75/2/4 92/2/4
f 95/5/5 94/5/5 93/5/5
f 96/5/5 94/5/5 95/5/5
f 97/5/5 95/5/5 93/5/5
f 97/1/5 96/1/5 95/1/5
f 98/5/5 94/5/5 96/5/5
f 98/1/5 96/1/5 97/1/5
f 99/5/5 98/5/5 97/5/5
f 99/5/5 94/5/5 98/5/5
f 100/5/5 94/5/5 99/5/5
f 101/5/5 99/5/5 97/5/5
f 101/1/5 100/1/5 99/1/5
f 102/5/5 94/5/5 100/5/5
f 102/1/5 100/1/5 101/1/5
f 103/5/5 101/5/5 97/5/5
f 103/5/5 102/5/5 101/5/5
f 104/5/5 102/5/5 103/5/5
f 105/5/5 103/5/5 97/5/5
f 105/1/5 104/1/5 103/1/5
f 106/5/5 102/5/5 104/5/5
f 106/1/5 104/1/5 105/1/5
f 107/5/5 97/5/5 93/5/5
f 107/5/5 105/5/5 97/5/5
f 107/5/5 106/5/5 105/5/5
f 108/5/5 102/5/5 106/5/5
f 108/5/5 106/5/5 107/5/5
f 108/5/5 94/5/5 102/5/5
f 109/2/6 110/2/6 111/2/6
f 111/2/6 110/2/6 112/2/6
