# MagicaVoxel @ Ephtracy

# material
mtllib Skin032.mtl
usemtl palette

# normals
vn -1 0 0
vn 1 0 0
vn 0 0 1
vn 0 0 -1
vn 0 -1 0
vn 0 1 0

# texcoords
vt 0.958984 0.5
vt 0.982422 0.5
vt 0.990234 0.5

# verts
v -48 0 45
v -48 0 12
v -48 0 -9
v -48 0 -45
v -48 38 45
v -48 38 12
v -48 38 -9
v -48 38 -45
v -48 58 45
v -48 58 12
v -48 58 -9
v -48 58 -45
v -48 95 45
v -48 95 12
v -48 95 -9
v -48 95 -45
v -32 38 32
v -32 38 12
v -32 38 -9
v -32 38 -28
v -32 58 32
v -32 58 12
v -32 58 -9
v -32 58 -28
v -31 18 12
v -31 18 -9
v -31 37 12
v -31 37 -9
v -31 38 12
v -31 38 -9
v -31 58 12
v -31 58 -9
v -31 59 12
v -31 59 -9
v -31 78 12
v -31 78 -9
v -13 38 12
v -13 38 -9
v -13 38 -28
v -13 38 -29
v -13 39 -28
v -13 39 -29
v -13 58 12
v -13 58 -9
v 5 39 32
v 5 39 31
v 5 39 18
v 5 58 32
v 5 58 31
v 5 58 18
v 6 39 -10
v 6 39 -26
v 6 39 -28
v 6 58 -10
v 6 58 -26
v 6 58 -28
v 7 0 45
v 7 0 12
v 7 0 -9
v 7 0 -45
v 7 19 32
v 7 19 12
v 7 19 -9
v 7 19 -29
v 7 20 12
v 7 21 -9
v 7 35 12
v 7 35 -9
v 7 38 45
v 7 38 32
v 7 38 -29
v 7 38 -45
v 7 58 45
v 7 58 32
v 7 58 -29
v 7 58 -45
v 7 63 12
v 7 63 -9
v 7 77 12
v 7 77 -9
v 7 78 32
v 7 78 12
v 7 78 -9
v 7 78 -29
v 7 95 45
v 7 95 12
v 7 95 -9
v 7 95 -45
v -13 0 45
v -13 0 12
v -13 0 -9
v -13 0 -45
v -13 18 12
v -13 18 -9
v -13 19 32
v -13 19 12
v -13 19 -9
v -13 19 -29
v -13 20 12
v -13 21 -9
v -13 35 12
v -13 35 -9
v -13 38 45
v -13 38 32
v -13 38 -29
v -13 38 -45
v -13 58 45
v -13 58 32
v -13 58 -29
v -13 58 -45
v -13 63 12
v -13 63 -9
v -13 77 12
v -13 77 -9
v -13 78 32
v -13 78 12
v -13 78 -9
v -13 78 -29
v -13 95 45
v -13 95 12
v -13 95 -9
v -13 95 -45
v -12 39 32
v -12 39 31
v -12 39 18
v -12 39 -10
v -12 39 -27
v -12 39 -28
v -12 58 32
v -12 58 31
v -12 58 18
v -12 58 -10
v -12 58 -27
v -12 58 -28
v 7 38 12
v 7 38 -9
v 7 38 -28
v 7 38 -29
v 7 39 -28
v 7 39 -29
v 7 58 12
v 7 58 -9
v 25 19 12
v 25 19 -9
v 25 37 12
v 25 37 -9
v 25 38 32
v 25 38 12
v 25 38 -9
v 25 58 32
v 25 58 12
v 25 58 -9
v 25 59 12
v 25 59 -9
v 25 78 12
v 25 78 -9
v 26 38 -9
v 26 38 -28
v 26 58 -9
v 26 58 -28
v 48 0 45
v 48 0 12
v 48 0 -9
v 48 0 -45
v 48 38 45
v 48 38 12
v 48 38 -9
v 48 38 -45
v 48 58 45
v 48 58 12
v 48 58 -9
v 48 58 -45
v 48 95 45
v 48 95 12
v 48 95 -9
v 48 95 -45
v -48 0 45
v -48 38 45
v -48 58 45
v -48 95 45
v -13 0 45
v -13 38 45
v -13 58 45
v -13 95 45
v 7 0 45
v 7 38 45
v 7 58 45
v 7 95 45
v 48 0 45
v 48 38 45
v 48 58 45
v 48 95 45
v -32 38 32
v -32 58 32
v -13 19 32
v -13 38 32
v -13 58 32
v -13 78 32
v -12 39 32
v -12 58 32
v 5 39 32
v 5 58 32
v 7 19 32
v 7 38 32
v 7 58 32
v 7 78 32
v 25 38 32
v 25 58 32
v -12 39 18
v -12 58 18
v 5 39 18
v 5 58 18
v -48 0 -9
v -48 38 -9
v -48 58 -9
v -48 95 -9
v -32 38 -9
v -32 58 -9
v -31 18 -9
v -31 37 -9
v -31 38 -9
v -31 58 -9
v -31 59 -9
v -31 78 -9
v -14 18 -9
v -14 78 -9
v -13 0 -9
v -13 18 -9
v -13 19 -9
v -13 21 -9
v -13 35 -9
v -13 38 -9
v -13 58 -9
v -13 63 -9
v -13 77 -9
v -13 78 -9
v -13 95 -9
v 7 0 -9
v 7 19 -9
v 7 21 -9
v 7 35 -9
v 7 38 -9
v 7 58 -9
v 7 63 -9
v 7 77 -9
v 7 78 -9
v 7 95 -9
v 8 18 -9
v 8 19 -9
v 8 78 -9
v 25 18 -9
v 25 19 -9
v 25 37 -9
v 25 38 -9
v 25 58 -9
v 25 59 -9
v 25 78 -9
v 26 38 -9
v 26 58 -9
v 48 0 -9
v 48 38 -9
v 48 58 -9
v 48 95 -9
v -48 0 12
v -48 38 12
v -48 58 12
v -48 95 12
v -32 38 12
v -32 58 12
v -31 18 12
v -31 37 12
v -31 38 12
v -31 58 12
v -31 59 12
v -31 78 12
v -14 18 12
v -14 78 12
v -13 0 12
v -13 18 12
v -13 19 12
v -13 20 12
v -13 35 12
v -13 38 12
v -13 58 12
v -13 63 12
v -13 77 12
v -13 78 12
v -13 95 12
v 7 0 12
v 7 19 12
v 7 20 12
v 7 35 12
v 7 38 12
v 7 58 12
v 7 63 12
v 7 77 12
v 7 78 12
v 7 95 12
v 8 18 12
v 8 19 12
v 8 78 12
v 24 38 12
v 24 58 12
v 25 18 12
v 25 19 12
v 25 37 12
v 25 38 12
v 25 58 12
v 25 59 12
v 25 78 12
v 48 0 12
v 48 38 12
v 48 58 12
v 48 95 12
v -12 39 -10
v -12 58 -10
v 6 39 -10
v 6 58 -10
v -32 38 -28
v -32 58 -28
v -13 38 -28
v -13 39 -28
v -13 58 -28
v -12 39 -28
v -12 58 -28
v 6 39 -28
v 6 58 -28
v 7 38 -28
v 7 39 -28
v 7 58 -28
v 26 38 -28
v 26 58 -28
v -13 19 -29
v -13 38 -29
v -13 39 -29
v -13 58 -29
v -13 78 -29
v 7 19 -29
v 7 38 -29
v 7 39 -29
v 7 58 -29
v 7 78 -29
v -48 0 -45
v -48 38 -45
v -48 58 -45
v -48 95 -45
v -13 0 -45
v -13 38 -45
v -13 58 -45
v -13 95 -45
v 7 0 -45
v 7 38 -45
v 7 58 -45
v 7 95 -45
v 48 0 -45
v 48 38 -45
v 48 58 -45
v 48 95 -45
v -48 0 45
v -13 0 45
v 7 0 45
v 48 0 45
v -48 0 12
v -13 0 12
v 7 0 12
v 48 0 12
v -48 0 -9
v -13 0 -9
v 7 0 -9
v 48 0 -9
v -48 0 -45
v -13 0 -45
v 7 0 -45
v 48 0 -45
v -31 18 12
v -14 18 12
v -13 18 12
v -31 18 -9
v -14 18 -9
v -13 18 -9
v -13 19 32
v 7 19 32
v -13 19 12
v 7 19 12
v 8 19 12
v 25 19 12
v -13 19 -9
v 7 19 -9
v 8 19 -9
v 25 19 -9
v -13 19 -29
v 7 19 -29
v -13 35 12
v 7 35 12
v -13 35 -9
v 7 35 -9
v -48 58 45
v -13 58 45
v 7 58 45
v 48 58 45
v -32 58 32
v -13 58 32
v -12 58 32
v 5 58 32
v 7 58 32
v 25 58 32
v -12 58 31
v 5 58 31
v -12 58 18
v 5 58 18
v -48 58 12
v -32 58 12
v -31 58 12
v -13 58 12
v 7 58 12
v 24 58 12
v 25 58 12
v 48 58 12
v -48 58 -9
v -32 58 -9
v -31 58 -9
v -13 58 -9
v 7 58 -9
v 25 58 -9
v 26 58 -9
v 48 58 -9
v -12 58 -10
v 6 58 -10
v 6 58 -26
v -12 58 -27
v -32 58 -28
v -13 58 -28
v -12 58 -28
v 6 58 -28
v 7 58 -28
v 26 58 -28
v -13 58 -29
v 7 58 -29
v -48 58 -45
v -13 58 -45
v 7 58 -45
v 48 58 -45
v -48 38 45
v -13 38 45
v 7 38 45
v 48 38 45
v -32 38 32
v -13 38 32
v 7 38 32
v 25 38 32
v -48 38 12
v -32 38 12
v -31 38 12
v -13 38 12
v 7 38 12
v 24 38 12
v 25 38 12
v 48 38 12
v -48 38 -9
v -32 38 -9
v -31 38 -9
v -13 38 -9
v 7 38 -9
v 25 38 -9
v 26 38 -9
v 48 38 -9
v -32 38 -28
v -13 38 -28
v 7 38 -28
v 26 38 -28
v -13 38 -29
v 7 38 -29
v -48 38 -45
v -13 38 -45
v 7 38 -45
v 48 38 -45
v -12 39 32
v 5 39 32
v -12 39 31
v 5 39 31
v -12 39 18
v 5 39 18
v -12 39 -10
v 6 39 -10
v 6 39 -26
v -12 39 -27
v -13 39 -28
v -12 39 -28
v 6 39 -28
v 7 39 -28
v -13 39 -29
v 7 39 -29
v -13 63 12
v 7 63 12
v -13 63 -9
v 7 63 -9
v -13 78 32
v 7 78 32
v -31 78 12
v -14 78 12
v -13 78 12
v 7 78 12
v 8 78 12
v 25 78 12
v -31 78 -9
v -14 78 -9
v -13 78 -9
v 7 78 -9
v 8 78 -9
v 25 78 -9
v -13 78 -29
v 7 78 -29
v -48 95 45
v -13 95 45
v 7 95 45
v 48 95 45
v -48 95 12
v -13 95 12
v 7 95 12
v 48 95 12
v -48 95 -9
v -13 95 -9
v 7 95 -9
v 48 95 -9
v -48 95 -45
v -13 95 -45
v 7 95 -45
v 48 95 -45

# faces
f 5/3/1 2/3/1 1/3/1
f 6/3/1 2/3/1 5/3/1
f 7/3/1 4/3/1 3/3/1
f 8/3/1 4/3/1 7/3/1
f 13/3/1 10/3/1 9/3/1
f 14/3/1 10/3/1 13/3/1
f 15/3/1 12/3/1 11/3/1
f 16/3/1 12/3/1 15/3/1
f 21/1/1 18/1/1 17/1/1
f 22/1/1 18/1/1 21/1/1
f 23/1/1 20/1/1 19/1/1
f 24/1/1 20/1/1 23/1/1
f 27/1/1 26/1/1 25/1/1
f 28/1/1 26/1/1 27/1/1
f 29/2/1 28/2/1 27/2/1
f 30/2/1 28/2/1 29/2/1
f 33/2/1 32/2/1 31/2/1
f 34/2/1 32/2/1 33/2/1
f 35/1/1 34/1/1 33/1/1
f 36/1/1 34/1/1 35/1/1
f 41/1/1 40/1/1 39/1/1
f 42/1/1 40/1/1 41/1/1
f 43/2/1 38/2/1 37/2/1
f 44/2/1 38/2/1 43/2/1
f 48/1/1 46/1/1 45/1/1
f 49/2/1 47/2/1 46/2/1
f 49/1/1 46/1/1 48/1/1
f 50/2/1 47/2/1 49/2/1
f 54/2/1 52/2/1 51/2/1
f 55/1/1 53/1/1 52/1/1
f 55/2/1 52/2/1 54/2/1
f 56/1/1 53/1/1 55/1/1
f 61/3/1 58/3/1 57/3/1
f 62/3/1 58/3/1 61/3/1
f 63/3/1 60/3/1 59/3/1
f 64/3/1 60/3/1 63/3/1
f 65/2/1 63/2/1 62/2/1
f 66/2/1 63/2/1 65/2/1
f 67/2/1 66/2/1 65/2/1
f 68/2/1 66/2/1 67/2/1
f 69/3/1 61/3/1 57/3/1
f 70/3/1 61/3/1 69/3/1
f 71/3/1 60/3/1 64/3/1
f 72/3/1 60/3/1 71/3/1
f 79/2/1 78/2/1 77/2/1
f 80/2/1 78/2/1 79/2/1
f 81/3/1 74/3/1 73/3/1
f 82/2/1 80/2/1 79/2/1
f 83/2/1 80/2/1 82/2/1
f 84/3/1 76/3/1 75/3/1
f 85/3/1 82/3/1 81/3/1
f 85/3/1 81/3/1 73/3/1
f 86/3/1 82/3/1 85/3/1
f 87/3/1 84/3/1 83/3/1
f 88/3/1 76/3/1 84/3/1
f 88/3/1 84/3/1 87/3/1
f 89/3/2 90/3/2 93/3/2
f 91/3/2 92/3/2 94/3/2
f 89/3/2 93/3/2 95/3/2
f 93/2/2 94/2/2 96/2/2
f 95/3/2 93/3/2 96/3/2
f 94/3/2 92/3/2 97/3/2
f 96/2/2 94/2/2 97/2/2
f 97/3/2 92/3/2 98/3/2
f 96/2/2 97/2/2 99/2/2
f 99/2/2 97/2/2 100/2/2
f 99/2/2 100/2/2 101/2/2
f 101/2/2 100/2/2 102/2/2
f 89/3/2 95/3/2 103/3/2
f 103/3/2 95/3/2 104/3/2
f 98/3/2 92/3/2 105/3/2
f 105/3/2 92/3/2 106/3/2
f 111/2/2 112/2/2 113/2/2
f 113/2/2 112/2/2 114/2/2
f 107/3/2 108/3/2 115/3/2
f 113/2/2 114/2/2 116/2/2
f 116/2/2 114/2/2 117/2/2
f 109/3/2 110/3/2 118/3/2
f 115/3/2 116/3/2 119/3/2
f 107/3/2 115/3/2 119/3/2
f 119/3/2 116/3/2 120/3/2
f 117/3/2 118/3/2 121/3/2
f 118/3/2 110/3/2 122/3/2
f 121/3/2 118/3/2 122/3/2
f 123/1/2 124/1/2 129/1/2
f 124/2/2 125/2/2 130/2/2
f 129/1/2 124/1/2 130/1/2
f 130/2/2 125/2/2 131/2/2
f 126/2/2 127/2/2 132/2/2
f 127/1/2 128/1/2 133/1/2
f 132/2/2 127/2/2 133/2/2
f 133/1/2 128/1/2 134/1/2
f 137/1/2 138/1/2 139/1/2
f 139/1/2 138/1/2 140/1/2
f 135/2/2 136/2/2 141/2/2
f 141/2/2 136/2/2 142/2/2
f 143/1/2 144/1/2 145/1/2
f 145/1/2 144/1/2 146/1/2
f 145/2/2 146/2/2 148/2/2
f 148/2/2 146/2/2 149/2/2
f 147/1/2 148/1/2 150/1/2
f 150/1/2 148/1/2 151/1/2
f 151/2/2 152/2/2 153/2/2
f 153/2/2 152/2/2 154/2/2
f 153/1/2 154/1/2 155/1/2
f 155/1/2 154/1/2 156/1/2
f 157/1/2 158/1/2 159/1/2
f 159/1/2 158/1/2 160/1/2
f 161/3/2 162/3/2 165/3/2
f 165/3/2 162/3/2 166/3/2
f 163/3/2 164/3/2 167/3/2
f 167/3/2 164/3/2 168/3/2
f 169/3/2 170/3/2 173/3/2
f 173/3/2 170/3/2 174/3/2
f 171/3/2 172/3/2 175/3/2
f 175/3/2 172/3/2 176/3/2
f 181/3/3 178/3/3 177/3/3
f 182/3/3 178/3/3 181/3/3
f 183/3/3 180/3/3 179/3/3
f 184/3/3 180/3/3 183/3/3
f 189/3/3 186/3/3 185/3/3
f 190/3/3 186/3/3 189/3/3
f 191/3/3 188/3/3 187/3/3
f 192/3/3 188/3/3 191/3/3
f 196/1/3 194/1/3 193/1/3
f 197/1/3 194/1/3 196/1/3
f 199/1/3 196/1/3 195/1/3
f 199/1/3 198/1/3 197/1/3
f 199/1/3 197/1/3 196/1/3
f 200/1/3 198/1/3 199/1/3
f 201/1/3 199/1/3 195/1/3
f 202/1/3 198/1/3 200/1/3
f 203/1/3 201/1/3 195/1/3
f 203/1/3 202/1/3 201/1/3
f 204/1/3 202/1/3 203/1/3
f 205/1/3 198/1/3 202/1/3
f 205/1/3 202/1/3 204/1/3
f 206/1/3 198/1/3 205/1/3
f 207/1/3 205/1/3 204/1/3
f 208/1/3 205/1/3 207/1/3
f 211/2/3 210/2/3 209/2/3
f 212/2/3 210/2/3 211/2/3
f 217/3/3 214/3/3 213/3/3
f 218/3/3 216/3/3 215/3/3
f 219/3/3 217/3/3 213/3/3
f 220/3/3 217/3/3 219/3/3
f 221/1/3 218/1/3 217/1/3
f 221/3/3 217/3/3 220/3/3
f 222/3/3 216/3/3 218/3/3
f 222/1/3 218/1/3 221/1/3
f 223/3/3 216/3/3 222/3/3
f 224/3/3 216/3/3 223/3/3
f 225/3/3 219/3/3 213/3/3
f 226/3/3 216/3/3 224/3/3
f 227/3/3 225/3/3 213/3/3
f 228/3/3 225/3/3 227/3/3
f 232/2/3 222/2/3 221/2/3
f 233/2/3 222/2/3 232/2/3
f 236/3/3 216/3/3 226/3/3
f 237/3/3 216/3/3 236/3/3
f 239/1/3 230/1/3 229/1/3
f 240/2/3 231/2/3 230/2/3
f 240/1/3 230/1/3 239/1/3
f 241/2/3 231/2/3 240/2/3
f 244/2/3 235/2/3 234/2/3
f 245/1/3 236/1/3 235/1/3
f 245/2/3 235/2/3 244/2/3
f 246/1/3 236/1/3 245/1/3
f 248/3/3 239/3/3 238/3/3
f 249/3/3 239/3/3 248/3/3
f 250/3/3 247/3/3 246/3/3
f 251/2/3 249/2/3 248/2/3
f 251/3/3 248/3/3 238/3/3
f 252/2/3 249/2/3 251/2/3
f 254/2/3 243/2/3 242/2/3
f 255/2/3 243/2/3 254/2/3
f 257/3/3 247/3/3 250/3/3
f 258/3/3 253/3/3 252/3/3
f 258/3/3 252/3/3 251/3/3
f 258/3/3 254/3/3 253/3/3
f 258/1/3 255/1/3 254/1/3
f 259/3/3 257/3/3 256/3/3
f 259/1/3 255/1/3 258/1/3
f 259/3/3 256/3/3 255/3/3
f 260/3/3 258/3/3 251/3/3
f 260/3/3 251/3/3 238/3/3
f 261/3/3 258/3/3 260/3/3
f 262/3/3 257/3/3 259/3/3
f 263/3/3 247/3/3 257/3/3
f 263/3/3 257/3/3 262/3/3
f 264/3/4 265/3/4 268/3/4
f 266/3/4 267/3/4 269/3/4
f 264/3/4 268/3/4 270/3/4
f 270/3/4 268/3/4 271/3/4
f 268/1/4 269/1/4 272/1/4
f 271/3/4 268/3/4 272/3/4
f 269/3/4 267/3/4 273/3/4
f 272/1/4 269/1/4 273/1/4
f 273/3/4 267/3/4 274/3/4
f 274/3/4 267/3/4 275/3/4
f 264/3/4 270/3/4 276/3/4
f 275/3/4 267/3/4 277/3/4
f 264/3/4 276/3/4 278/3/4
f 278/3/4 276/3/4 279/3/4
f 272/2/4 273/2/4 283/2/4
f 283/2/4 273/2/4 284/2/4
f 277/3/4 267/3/4 287/3/4
f 287/3/4 267/3/4 288/3/4
f 280/1/4 281/1/4 290/1/4
f 281/2/4 282/2/4 291/2/4
f 290/1/4 281/1/4 291/1/4
f 291/2/4 282/2/4 292/2/4
f 285/2/4 286/2/4 295/2/4
f 286/1/4 287/1/4 296/1/4
f 295/2/4 286/2/4 296/2/4
f 296/1/4 287/1/4 297/1/4
f 289/3/4 290/3/4 299/3/4
f 299/3/4 290/3/4 300/3/4
f 297/3/4 298/3/4 301/3/4
f 293/2/4 294/2/4 302/2/4
f 302/2/4 294/2/4 303/2/4
f 299/2/4 300/2/4 304/2/4
f 289/3/4 299/3/4 304/3/4
f 304/2/4 300/2/4 305/2/4
f 302/1/4 303/1/4 307/1/4
f 307/1/4 303/1/4 308/1/4
f 301/3/4 298/3/4 310/3/4
f 305/3/4 306/3/4 311/3/4
f 289/3/4 304/3/4 311/3/4
f 304/3/4 305/3/4 311/3/4
f 306/3/4 307/3/4 311/3/4
f 311/3/4 307/3/4 312/3/4
f 308/3/4 309/3/4 313/3/4
f 309/3/4 310/3/4 313/3/4
f 310/3/4 298/3/4 314/3/4
f 313/3/4 310/3/4 314/3/4
f 315/2/4 316/2/4 317/2/4
f 317/2/4 316/2/4 318/2/4
f 319/1/4 320/1/4 321/1/4
f 321/1/4 320/1/4 322/1/4
f 322/1/4 320/1/4 323/1/4
f 322/1/4 323/1/4 324/1/4
f 324/1/4 323/1/4 325/1/4
f 326/1/4 327/1/4 329/1/4
f 329/1/4 327/1/4 330/1/4
f 328/1/4 329/1/4 331/1/4
f 329/1/4 330/1/4 331/1/4
f 331/1/4 330/1/4 332/1/4
f 333/1/4 334/1/4 338/1/4
f 334/1/4 335/1/4 338/1/4
f 338/1/4 335/1/4 339/1/4
f 339/1/4 335/1/4 340/1/4
f 336/1/4 337/1/4 341/1/4
f 341/1/4 337/1/4 342/1/4
f 343/3/4 344/3/4 347/3/4
f 347/3/4 344/3/4 348/3/4
f 345/3/4 346/3/4 349/3/4
f 349/3/4 346/3/4 350/3/4
f 351/3/4 352/3/4 355/3/4
f 355/3/4 352/3/4 356/3/4
f 353/3/4 354/3/4 357/3/4
f 357/3/4 354/3/4 358/3/4
f 363/3/5 360/3/5 359/3/5
f 364/3/5 360/3/5 363/3/5
f 365/3/5 362/3/5 361/3/5
f 366/3/5 362/3/5 365/3/5
f 371/3/5 368/3/5 367/3/5
f 372/3/5 368/3/5 371/3/5
f 373/3/5 370/3/5 369/3/5
f 374/3/5 370/3/5 373/3/5
f 378/1/5 376/1/5 375/1/5
f 379/2/5 377/2/5 376/2/5
f 379/1/5 376/1/5 378/1/5
f 380/2/5 377/2/5 379/2/5
f 383/1/5 382/1/5 381/1/5
f 384/1/5 382/1/5 383/1/5
f 388/2/5 385/2/5 384/2/5
f 389/1/5 386/1/5 385/1/5
f 389/2/5 385/2/5 388/2/5
f 390/1/5 386/1/5 389/1/5
f 391/1/5 388/1/5 387/1/5
f 392/1/5 388/1/5 391/1/5
f 395/2/5 394/2/5 393/2/5
f 396/2/5 394/2/5 395/2/5
f 401/3/5 398/3/5 397/3/5
f 402/3/5 398/3/5 401/3/5
f 405/3/5 400/3/5 399/3/5
f 406/3/5 400/3/5 405/3/5
f 407/1/5 404/1/5 403/1/5
f 408/1/5 404/1/5 407/1/5
f 409/2/5 408/2/5 407/2/5
f 410/2/5 408/2/5 409/2/5
f 411/3/5 401/3/5 397/3/5
f 412/3/5 401/3/5 411/3/5
f 417/3/5 400/3/5 406/3/5
f 418/3/5 400/3/5 417/3/5
f 421/2/5 414/2/5 413/2/5
f 422/2/5 414/2/5 421/2/5
f 423/2/5 416/2/5 415/2/5
f 423/2/5 417/2/5 416/2/5
f 424/2/5 417/2/5 423/2/5
f 429/2/5 428/2/5 427/2/5
f 430/2/5 429/2/5 427/2/5
f 431/3/5 420/3/5 419/3/5
f 433/2/5 429/2/5 430/2/5
f 434/2/5 429/2/5 433/2/5
f 436/3/5 426/3/5 425/3/5
f 437/1/5 435/1/5 434/1/5
f 437/3/5 432/3/5 431/3/5
f 437/1/5 434/1/5 433/1/5
f 437/1/5 433/1/5 432/1/5
f 438/3/5 436/3/5 435/3/5
f 438/1/5 435/1/5 437/1/5
f 439/3/5 437/3/5 431/3/5
f 439/3/5 431/3/5 419/3/5
f 440/3/5 437/3/5 439/3/5
f 441/3/5 436/3/5 438/3/5
f 442/3/5 426/3/5 436/3/5
f 442/3/5 436/3/5 441/3/5
f 443/3/6 444/3/6 447/3/6
f 447/3/6 444/3/6 448/3/6
f 445/3/6 446/3/6 449/3/6
f 449/3/6 446/3/6 450/3/6
f 443/3/6 447/3/6 451/3/6
f 451/3/6 447/3/6 452/3/6
f 450/3/6 446/3/6 457/3/6
f 457/3/6 446/3/6 458/3/6
f 453/2/6 454/2/6 461/2/6
f 461/2/6 454/2/6 462/2/6
f 455/2/6 456/2/6 463/2/6
f 456/2/6 457/2/6 463/2/6
f 463/2/6 457/2/6 464/2/6
f 459/3/6 460/3/6 467/3/6
f 465/3/6 466/3/6 470/3/6
f 467/3/6 468/3/6 471/3/6
f 469/3/6 470/3/6 472/3/6
f 467/3/6 471/3/6 473/3/6
f 459/3/6 467/3/6 473/3/6
f 473/3/6 471/3/6 474/3/6
f 472/3/6 470/3/6 475/3/6
f 470/3/6 466/3/6 476/3/6
f 475/3/6 470/3/6 476/3/6
f 477/1/6 478/1/6 479/1/6
f 479/1/6 478/1/6 480/1/6
f 479/2/6 480/2/6 481/2/6
f 481/2/6 480/2/6 482/2/6
f 483/2/6 484/2/6 485/2/6
f 483/2/6 485/2/6 486/2/6
f 486/2/6 485/2/6 488/2/6
f 488/2/6 485/2/6 489/2/6
f 488/1/6 489/1/6 491/1/6
f 489/1/6 490/1/6 491/1/6
f 487/1/6 488/1/6 491/1/6
f 491/1/6 490/1/6 492/1/6
f 493/2/6 494/2/6 495/2/6
f 495/2/6 494/2/6 496/2/6
f 497/1/6 498/1/6 501/1/6
f 501/1/6 498/1/6 502/1/6
f 499/1/6 500/1/6 505/1/6
f 500/2/6 501/2/6 506/2/6
f 505/1/6 500/1/6 506/1/6
f 506/2/6 501/2/6 507/2/6
f 502/2/6 503/2/6 508/2/6
f 503/1/6 504/1/6 509/1/6
f 508/2/6 503/2/6 509/2/6
f 509/1/6 504/1/6 510/1/6
f 507/1/6 508/1/6 511/1/6
f 511/1/6 508/1/6 512/1/6
f 513/3/6 514/3/6 517/3/6
f 517/3/6 514/3/6 518/3/6
f 515/3/6 516/3/6 519/3/6
f 519/3/6 516/3/6 520/3/6
f 521/3/6 522/3/6 525/3/6
f 525/3/6 522/3/6 526/3/6
f 523/3/6 524/3/6 527/3/6
f 527/3/6 524/3/6 528/3/6
