# MagicaVoxel @ Ephtracy

# material
mtllib Skin025.mtl
usemtl palette

# normals
vn -1 0 0
vn 1 0 0
vn 0 0 1
vn 0 0 -1
vn 0 -1 0
vn 0 1 0

# texcoords
vt 0.306641 0.5
vt 0.587891 0.5
vt 0.634766 0.5
vt 0.751953 0.5

# verts
v -48 0 47
v -48 0 -48
v -48 32 47
v -48 32 -48
v -48 64 48
v -48 64 -48
v -48 96 48
v -48 96 -48
v 16 0 48
v 16 0 -16
v 16 32 17
v 16 32 -16
v 16 64 48
v 16 64 17
v -16 0 47
v -16 0 -16
v -16 32 47
v -16 32 -16
v -16 64 17
v -16 64 -16
v -16 96 17
v -16 96 -16
v 48 0 48
v 48 0 -48
v 48 32 17
v 48 32 -48
v 48 64 -16
v 48 64 -48
v 48 96 48
v 48 96 17
v 48 96 -16
v 48 96 -48
v -48 64 48
v -48 96 48
v 16 0 48
v 16 64 48
v 48 0 48
v 48 96 48
v -48 0 47
v -48 32 47
v -16 0 47
v -16 32 47
v -16 0 -16
v -16 32 -16
v -16 64 -16
v -16 96 -16
v 16 0 -16
v 16 32 -16
v 48 64 -16
v 48 96 -16
v -16 64 17
v -16 96 17
v 16 32 17
v 16 64 17
v 48 32 17
v 48 96 17
v -48 0 -48
v -48 32 -48
v -48 64 -48
v -48 96 -48
v 48 0 -48
v 48 32 -48
v 48 64 -48
v 48 96 -48
v 16 0 48
v 48 0 48
v -48 0 47
v -16 0 47
v -16 0 -16
v 16 0 -16
v -48 0 -48
v 48 0 -48
v -48 64 48
v 16 64 48
v -16 64 17
v 16 64 17
v -16 64 -16
v 48 64 -16
v -48 64 -48
v 48 64 -48
v -48 32 47
v -16 32 47
v 16 32 17
v 48 32 17
v -16 32 -16
v 16 32 -16
v -48 32 -48
v 48 32 -48
v -48 96 48
v 48 96 48
v -16 96 17
v 48 96 17
v -16 96 -16
v 48 96 -16
v -48 96 -48
v 48 96 -48

# faces
f 3/4/1 2/4/1 1/4/1
f 4/4/1 2/4/1 3/4/1
f 7/4/1 6/4/1 5/4/1
f 8/4/1 6/4/1 7/4/1
f 11/4/1 10/4/1 9/4/1
f 12/4/1 10/4/1 11/4/1
f 13/4/1 11/4/1 9/4/1
f 14/4/1 11/4/1 13/4/1
f 15/4/2 16/4/2 17/4/2
f 17/4/2 16/4/2 18/4/2
f 19/4/2 20/4/2 21/4/2
f 21/4/2 20/4/2 22/4/2
f 23/4/2 24/4/2 25/4/2
f 25/4/2 24/4/2 26/4/2
f 23/4/2 25/4/2 29/4/2
f 29/4/2 25/4/2 30/4/2
f 27/4/2 28/4/2 31/4/2
f 31/4/2 28/4/2 32/4/2
f 36/4/3 34/4/3 33/4/3
f 37/4/3 36/4/3 35/4/3
f 38/4/3 34/4/3 36/4/3
f 38/4/3 36/4/3 37/4/3
f 41/4/3 40/4/3 39/4/3
f 42/4/3 40/4/3 41/4/3
f 47/4/3 44/4/3 43/4/3
f 48/4/3 44/4/3 47/4/3
f 49/4/3 46/4/3 45/4/3
f 50/4/3 46/4/3 49/4/3
f 51/4/4 52/4/4 54/4/4
f 53/4/4 54/4/4 55/4/4
f 54/4/4 52/4/4 56/4/4
f 55/4/4 54/4/4 56/4/4
f 57/4/4 58/4/4 61/4/4
f 61/4/4 58/4/4 62/4/4
f 59/4/4 60/4/4 63/4/4
f 63/4/4 60/4/4 64/4/4
f 69/4/5 68/4/5 67/4/5
f 70/4/5 66/4/5 65/4/5
f 71/4/5 69/4/5 67/4/5
f 71/4/5 70/4/5 69/4/5
f 72/4/5 66/4/5 70/4/5
f 72/4/5 70/4/5 71/4/5
f 75/4/5 74/4/5 73/4/5
f 76/4/5 74/4/5 75/4/5
f 77/4/5 75/4/5 73/4/5
f 79/4/5 77/4/5 73/4/5
f 79/4/5 78/4/5 77/4/5
f 80/4/5 78/4/5 79/4/5
f 81/4/6 82/4/6 85/4/6
f 83/4/6 84/4/6 86/4/6
f 81/4/6 85/4/6 87/4/6
f 85/4/6 86/4/6 87/4/6
f 86/4/6 84/4/6 88/4/6
f 87/4/6 86/4/6 88/4/6
f 89/4/6 90/4/6 91/4/6
f 91/4/6 90/4/6 92/4/6
f 89/4/6 91/4/6 93/4/6
f 89/4/6 93/4/6 95/4/6
f 93/4/6 94/4/6 95/4/6
f 95/4/6 94/4/6 96/4/6
