# MagicaVoxel @ Ephtracy

# material
mtllib Skin034.mtl
usemtl palette

# normals
vn -1 0 0
vn 1 0 0
vn 0 0 1
vn 0 0 -1
vn 0 -1 0
vn 0 1 0

# texcoords
vt 0.306641 0.5
vt 0.537109 0.5
vt 0.904297 0.5
vt 0.908203 0.5
vt 0.958984 0.5
vt 0.962891 0.5
vt 0.966797 0.5

# verts
v -48 0 48
v -48 0 -48
v -48 10 21
v -48 10 12
v -48 19 21
v -48 19 12
v -48 33 -19
v -48 33 -29
v -48 42 -19
v -48 42 -29
v -48 57 20
v -48 57 11
v -48 66 20
v -48 66 11
v -48 72 48
v -48 72 -48
v -48 75 48
v -48 75 -48
v -48 96 48
v -48 96 -48
v 48 0 48
v 48 0 -48
v 48 1 -28
v 48 1 -37
v 48 6 38
v 48 6 29
v 48 10 -28
v 48 10 -37
v 48 15 38
v 48 15 29
v 48 40 7
v 48 40 -2
v 48 49 7
v 48 49 -2
v 48 72 48
v 48 72 -48
v 48 75 48
v 48 75 -48
v 48 96 48
v 48 96 -48
v -48 0 48
v -48 72 48
v -48 75 48
v -48 96 48
v -35 51 48
v -35 60 48
v -33 8 48
v -33 17 48
v -26 51 48
v -26 60 48
v -24 8 48
v -24 17 48
v 4 26 48
v 4 35 48
v 13 26 48
v 13 35 48
v 28 54 48
v 28 63 48
v 37 54 48
v 37 63 48
v 48 0 48
v 48 72 48
v 48 75 48
v 48 96 48
v -48 0 -48
v -48 72 -48
v -48 75 -48
v -48 96 -48
v -39 30 -48
v -39 39 -48
v -29 30 -48
v -29 39 -48
v -2 58 -48
v -2 67 -48
v 7 58 -48
v 7 67 -48
v 24 12 -48
v 24 21 -48
v 33 12 -48
v 33 21 -48
v 48 0 -48
v 48 72 -48
v 48 75 -48
v 48 96 -48
v -48 0 48
v 48 0 48
v -28 0 27
v -19 0 27
v -28 0 18
v -19 0 18
v 24 0 9
v 33 0 9
v 24 0 -0
v 33 0 -0
v -10 0 -23
v -1 0 -23
v -10 0 -32
v -1 0 -32
v -48 0 -48
v 48 0 -48
v -48 96 48
v 48 96 48
v -48 96 -48
v 48 96 -48

# faces
f 3/1/1 2/1/1 1/1/1
f 4/1/1 2/1/1 3/1/1
f 5/1/1 3/1/1 1/1/1
f 5/5/1 4/5/1 3/5/1
f 6/1/1 2/1/1 4/1/1
f 6/5/1 4/5/1 5/5/1
f 7/1/1 6/1/1 5/1/1
f 7/1/1 2/1/1 6/1/1
f 8/1/1 2/1/1 7/1/1
f 9/1/1 7/1/1 5/1/1
f 9/5/1 8/5/1 7/5/1
f 10/1/1 2/1/1 8/1/1
f 10/5/1 8/5/1 9/5/1
f 11/1/1 9/1/1 5/1/1
f 11/1/1 10/1/1 9/1/1
f 12/1/1 10/1/1 11/1/1
f 13/1/1 11/1/1 5/1/1
f 13/5/1 12/5/1 11/5/1
f 14/1/1 10/1/1 12/1/1
f 14/5/1 12/5/1 13/5/1
f 15/1/1 5/1/1 1/1/1
f 15/1/1 13/1/1 5/1/1
f 15/1/1 14/1/1 13/1/1
f 16/1/1 10/1/1 14/1/1
f 16/1/1 14/1/1 15/1/1
f 16/1/1 2/1/1 10/1/1
f 17/7/1 16/7/1 15/7/1
f 18/7/1 16/7/1 17/7/1
f 19/6/1 18/6/1 17/6/1
f 20/6/1 18/6/1 19/6/1
f 21/1/2 22/1/2 23/1/2
f 23/1/2 22/1/2 24/1/2
f 21/1/2 23/1/2 25/1/2
f 25/1/2 23/1/2 26/1/2
f 23/5/2 24/5/2 27/5/2
f 26/1/2 23/1/2 27/1/2
f 24/1/2 22/1/2 28/1/2
f 27/5/2 24/5/2 28/5/2
f 25/5/2 26/5/2 29/5/2
f 21/1/2 25/1/2 29/1/2
f 26/1/2 27/1/2 30/1/2
f 29/5/2 26/5/2 30/5/2
f 27/1/2 28/1/2 30/1/2
f 29/1/2 30/1/2 31/1/2
f 30/1/2 28/1/2 31/1/2
f 31/1/2 28/1/2 32/1/2
f 29/1/2 31/1/2 33/1/2
f 31/5/2 32/5/2 33/5/2
f 32/1/2 28/1/2 34/1/2
f 33/5/2 32/5/2 34/5/2
f 21/1/2 29/1/2 35/1/2
f 29/1/2 33/1/2 35/1/2
f 33/1/2 34/1/2 35/1/2
f 34/1/2 28/1/2 36/1/2
f 35/1/2 34/1/2 36/1/2
f 28/1/2 22/1/2 36/1/2
f 35/7/2 36/7/2 37/7/2
f 37/7/2 36/7/2 38/7/2
f 37/6/2 38/6/2 39/6/2
f 39/6/2 38/6/2 40/6/2
f 45/1/3 42/1/3 41/1/3
f 46/1/3 42/1/3 45/1/3
f 47/1/3 45/1/3 41/1/3
f 48/1/3 45/1/3 47/1/3
f 49/5/3 46/5/3 45/5/3
f 49/1/3 45/1/3 48/1/3
f 50/1/3 42/1/3 46/1/3
f 50/5/3 46/5/3 49/5/3
f 51/5/3 48/5/3 47/5/3
f 51/1/3 47/1/3 41/1/3
f 52/1/3 49/1/3 48/1/3
f 52/5/3 48/5/3 51/5/3
f 52/1/3 50/1/3 49/1/3
f 53/1/3 52/1/3 51/1/3
f 53/1/3 50/1/3 52/1/3
f 54/1/3 50/1/3 53/1/3
f 55/1/3 53/1/3 51/1/3
f 55/5/3 54/5/3 53/5/3
f 56/1/3 50/1/3 54/1/3
f 56/5/3 54/5/3 55/5/3
f 57/1/3 56/1/3 55/1/3
f 57/1/3 50/1/3 56/1/3
f 58/1/3 42/1/3 50/1/3
f 58/1/3 50/1/3 57/1/3
f 59/1/3 57/1/3 55/1/3
f 59/5/3 58/5/3 57/5/3
f 60/1/3 42/1/3 58/1/3
f 60/5/3 58/5/3 59/5/3
f 61/1/3 51/1/3 41/1/3
f 61/1/3 59/1/3 55/1/3
f 61/1/3 60/1/3 59/1/3
f 61/1/3 55/1/3 51/1/3
f 62/7/3 43/7/3 42/7/3
f 62/1/3 60/1/3 61/1/3
f 62/1/3 42/1/3 60/1/3
f 63/6/3 44/6/3 43/6/3
f 63/7/3 43/7/3 62/7/3
f 64/6/3 44/6/3 63/6/3
f 65/1/4 66/1/4 69/1/4
f 69/1/4 66/1/4 70/1/4
f 65/1/4 69/1/4 71/1/4
f 69/5/4 70/5/4 71/5/4
f 70/1/4 66/1/4 72/1/4
f 71/5/4 70/5/4 72/5/4
f 71/1/4 72/1/4 73/1/4
f 72/1/4 66/1/4 73/1/4
f 73/1/4 66/1/4 74/1/4
f 71/1/4 73/1/4 75/1/4
f 73/5/4 74/5/4 75/5/4
f 74/1/4 66/1/4 76/1/4
f 75/5/4 74/5/4 76/5/4
f 65/1/4 71/1/4 77/1/4
f 71/1/4 75/1/4 77/1/4
f 75/1/4 76/1/4 77/1/4
f 77/1/4 76/1/4 78/1/4
f 65/1/4 77/1/4 79/1/4
f 77/5/4 78/5/4 79/5/4
f 78/1/4 76/1/4 80/1/4
f 79/5/4 78/5/4 80/5/4
f 65/1/4 79/1/4 81/1/4
f 79/1/4 80/1/4 81/1/4
f 66/7/4 67/7/4 82/7/4
f 81/1/4 80/1/4 82/1/4
f 76/1/4 66/1/4 82/1/4
f 80/1/4 76/1/4 82/1/4
f 67/6/4 68/6/4 83/6/4
f 82/7/4 67/7/4 83/7/4
f 83/6/4 68/6/4 84/6/4
f 87/1/5 86/1/5 85/1/5
f 88/1/5 86/1/5 87/1/5
f 89/1/5 87/1/5 85/1/5
f 89/5/5 88/5/5 87/5/5
f 90/1/5 86/1/5 88/1/5
f 90/5/5 88/5/5 89/5/5
f 91/1/5 90/1/5 89/1/5
f 91/1/5 86/1/5 90/1/5
f 92/1/5 86/1/5 91/1/5
f 93/1/5 91/1/5 89/1/5
f 93/5/5 92/5/5 91/5/5
f 94/1/5 86/1/5 92/1/5
f 94/5/5 92/5/5 93/5/5
f 95/1/5 93/1/5 89/1/5
f 95/1/5 94/1/5 93/1/5
f 96/1/5 94/1/5 95/1/5
f 97/1/5 95/1/5 89/1/5
f 97/5/5 96/5/5 95/5/5
f 98/1/5 94/1/5 96/1/5
f 98/5/5 96/5/5 97/5/5
f 99/1/5 89/1/5 85/1/5
f 99/1/5 97/1/5 89/1/5
f 99/1/5 98/1/5 97/1/5
f 100/1/5 94/1/5 98/1/5
f 100/1/5 98/1/5 99/1/5
f 100/1/5 86/1/5 94/1/5
f 101/6/6 102/6/6 103/6/6
f 103/6/6 102/6/6 104/6/6
