# MagicaVoxel @ Ephtracy

# material
mtllib Skin010.mtl
usemtl palette

# normals
vn -1 0 0
vn 1 0 0
vn 0 0 1
vn 0 0 -1
vn 0 -1 0
vn 0 1 0

# texcoords
vt 0.0136719 0.5
vt 0.0175781 0.5
vt 0.0214844 0.5
vt 0.0917969 0.5
vt 0.537109 0.5
vt 0.705078 0.5
vt 0.779297 0.5
vt 0.841797 0.5
vt 0.892578 0.5
vt 0.927734 0.5
vt 0.958984 0.5
vt 0.994141 0.5

# verts
v -48 0 48
v -48 0 -48
v -48 2 46
v -48 2 16
v -48 2 14
v -48 2 -15
v -48 2 -17
v -48 2 -46
v -48 32 46
v -48 32 16
v -48 32 14
v -48 32 -15
v -48 32 -17
v -48 32 -46
v -48 34 46
v -48 34 16
v -48 34 14
v -48 34 -15
v -48 34 -17
v -48 34 -46
v -48 63 46
v -48 63 16
v -48 63 14
v -48 63 -15
v -48 63 -17
v -48 63 -46
v -48 65 46
v -48 65 16
v -48 65 14
v -48 65 -15
v -48 65 -17
v -48 65 -46
v -48 94 46
v -48 94 16
v -48 94 14
v -48 94 -15
v -48 94 -17
v -48 94 -46
v -48 96 48
v -48 96 -48
v 48 0 48
v 48 0 -48
v 48 2 46
v 48 2 17
v 48 2 15
v 48 2 -14
v 48 2 -16
v 48 2 -46
v 48 31 46
v 48 31 17
v 48 31 15
v 48 31 -14
v 48 31 -16
v 48 31 -46
v 48 33 46
v 48 33 17
v 48 33 15
v 48 33 -14
v 48 33 -16
v 48 33 -46
v 48 62 46
v 48 62 17
v 48 62 15
v 48 62 -14
v 48 62 -16
v 48 62 -46
v 48 64 46
v 48 64 17
v 48 64 15
v 48 64 -14
v 48 64 -16
v 48 64 -44
v 48 64 -46
v 48 65 -44
v 48 65 -46
v 48 94 46
v 48 94 17
v 48 94 15
v 48 94 -14
v 48 94 -16
v 48 94 -46
v 48 96 48
v 48 96 -48
v -48 0 48
v -48 96 48
v -46 2 48
v -46 32 48
v -46 34 48
v -46 63 48
v -46 65 48
v -46 94 48
v -17 2 48
v -17 32 48
v -17 34 48
v -17 63 48
v -17 65 48
v -17 94 48
v -15 2 48
v -15 32 48
v -15 34 48
v -15 63 48
v -15 65 48
v -15 94 48
v 14 2 48
v 14 32 48
v 14 34 48
v 14 63 48
v 14 65 48
v 14 94 48
v 16 2 48
v 16 32 48
v 16 34 48
v 16 63 48
v 16 65 48
v 16 94 48
v 46 2 48
v 46 32 48
v 46 34 48
v 46 63 48
v 46 65 48
v 46 94 48
v 48 0 48
v 48 96 48
v -48 0 -48
v -48 96 -48
v -46 2 -48
v -46 31 -48
v -46 33 -48
v -46 62 -48
v -46 64 -48
v -46 94 -48
v -16 2 -48
v -16 31 -48
v -16 33 -48
v -16 62 -48
v -16 64 -48
v -16 94 -48
v -14 2 -48
v -14 31 -48
v -14 33 -48
v -14 62 -48
v -14 64 -48
v -14 94 -48
v 15 2 -48
v 15 31 -48
v 15 33 -48
v 15 62 -48
v 15 64 -48
v 15 94 -48
v 17 2 -48
v 17 31 -48
v 17 33 -48
v 17 62 -48
v 17 64 -48
v 17 94 -48
v 46 2 -48
v 46 31 -48
v 46 33 -48
v 46 62 -48
v 46 64 -48
v 46 94 -48
v 48 0 -48
v 48 96 -48
v -48 0 48
v 48 0 48
v -46 0 46
v -17 0 46
v -15 0 46
v 14 0 46
v 16 0 46
v 46 0 46
v -46 0 17
v -17 0 17
v -15 0 17
v 14 0 17
v 16 0 17
v 46 0 17
v -46 0 15
v -17 0 15
v -15 0 15
v 14 0 15
v 16 0 15
v 46 0 15
v -46 0 -14
v -17 0 -14
v -15 0 -14
v 14 0 -14
v 16 0 -14
v 46 0 -14
v -46 0 -16
v -17 0 -16
v -15 0 -16
v 14 0 -16
v 16 0 -16
v 46 0 -16
v -46 0 -46
v -17 0 -46
v -15 0 -46
v 14 0 -46
v 16 0 -46
v 46 0 -46
v -48 0 -48
v 48 0 -48
v -48 96 48
v 48 96 48
v -46 96 46
v -16 96 46
v -14 96 46
v 15 96 46
v 17 96 46
v 46 96 46
v -46 96 17
v -16 96 17
v -14 96 17
v 15 96 17
v 17 96 17
v 46 96 17
v -46 96 15
v -16 96 15
v -14 96 15
v 15 96 15
v 17 96 15
v 46 96 15
v -46 96 -14
v -16 96 -14
v -14 96 -14
v 15 96 -14
v 17 96 -14
v 46 96 -14
v -46 96 -16
v -16 96 -16
v -14 96 -16
v 15 96 -16
v 17 96 -16
v 46 96 -16
v -46 96 -46
v -16 96 -46
v -14 96 -46
v 15 96 -46
v 17 96 -46
v 46 96 -46
v -48 96 -48
v 48 96 -48

# faces
f 3/12/1 2/12/1 1/12/1
f 4/12/1 2/12/1 3/12/1
f 5/12/1 2/12/1 4/12/1
f 6/12/1 2/12/1 5/12/1
f 7/12/1 2/12/1 6/12/1
f 8/12/1 2/12/1 7/12/1
f 9/12/1 3/12/1 1/12/1
f 9/9/1 4/9/1 3/9/1
f 10/12/1 5/12/1 4/12/1
f 10/9/1 4/9/1 9/9/1
f 11/9/1 6/9/1 5/9/1
f 11/12/1 5/12/1 10/12/1
f 12/12/1 7/12/1 6/12/1
f 12/9/1 6/9/1 11/9/1
f 13/9/1 8/9/1 7/9/1
f 13/12/1 7/12/1 12/12/1
f 14/12/1 2/12/1 8/12/1
f 14/9/1 8/9/1 13/9/1
f 15/12/1 13/12/1 12/12/1
f 15/12/1 12/12/1 11/12/1
f 15/12/1 14/12/1 13/12/1
f 15/12/1 11/12/1 10/12/1
f 15/12/1 10/12/1 9/12/1
f 15/12/1 9/12/1 1/12/1
f 16/12/1 14/12/1 15/12/1
f 17/12/1 14/12/1 16/12/1
f 18/12/1 14/12/1 17/12/1
f 19/12/1 14/12/1 18/12/1
f 20/12/1 2/12/1 14/12/1
f 20/12/1 14/12/1 19/12/1
f 21/12/1 15/12/1 1/12/1
f 21/9/1 16/9/1 15/9/1
f 22/12/1 17/12/1 16/12/1
f 22/9/1 16/9/1 21/9/1
f 23/9/1 18/9/1 17/9/1
f 23/12/1 17/12/1 22/12/1
f 24/12/1 19/12/1 18/12/1
f 24/9/1 18/9/1 23/9/1
f 25/9/1 20/9/1 19/9/1
f 25/12/1 19/12/1 24/12/1
f 26/12/1 2/12/1 20/12/1
f 26/9/1 20/9/1 25/9/1
f 27/12/1 23/12/1 22/12/1
f 27/12/1 25/12/1 24/12/1
f 27/12/1 26/12/1 25/12/1
f 27/12/1 22/12/1 21/12/1
f 27/12/1 21/12/1 1/12/1
f 27/12/1 24/12/1 23/12/1
f 28/12/1 26/12/1 27/12/1
f 29/12/1 26/12/1 28/12/1
f 30/12/1 26/12/1 29/12/1
f 31/12/1 26/12/1 30/12/1
f 32/12/1 2/12/1 26/12/1
f 32/12/1 26/12/1 31/12/1
f 33/12/1 27/12/1 1/12/1
f 33/9/1 28/9/1 27/9/1
f 34/12/1 29/12/1 28/12/1
f 34/9/1 28/9/1 33/9/1
f 35/9/1 30/9/1 29/9/1
f 35/12/1 29/12/1 34/12/1
f 36/12/1 31/12/1 30/12/1
f 36/9/1 30/9/1 35/9/1
f 37/9/1 32/9/1 31/9/1
f 37/12/1 31/12/1 36/12/1
f 38/12/1 2/12/1 32/12/1
f 38/9/1 32/9/1 37/9/1
f 39/12/1 35/12/1 34/12/1
f 39/12/1 37/12/1 36/12/1
f 39/12/1 38/12/1 37/12/1
f 39/12/1 34/12/1 33/12/1
f 39/12/1 33/12/1 1/12/1
f 39/12/1 36/12/1 35/12/1
f 40/12/1 2/12/1 38/12/1
f 40/12/1 38/12/1 39/12/1
f 41/12/2 42/12/2 43/12/2
f 43/12/2 42/12/2 44/12/2
f 44/12/2 42/12/2 45/12/2
f 45/12/2 42/12/2 46/12/2
f 46/12/2 42/12/2 47/12/2
f 47/12/2 42/12/2 48/12/2
f 41/12/2 43/12/2 49/12/2
f 43/10/2 44/10/2 49/10/2
f 44/12/2 45/12/2 50/12/2
f 49/10/2 44/10/2 50/10/2
f 45/10/2 46/10/2 51/10/2
f 50/12/2 45/12/2 51/12/2
f 46/12/2 47/12/2 52/12/2
f 51/10/2 46/10/2 52/10/2
f 47/10/2 48/10/2 53/10/2
f 52/12/2 47/12/2 53/12/2
f 48/12/2 42/12/2 54/12/2
f 53/10/2 48/10/2 54/10/2
f 52/12/2 53/12/2 55/12/2
f 51/12/2 52/12/2 55/12/2
f 53/12/2 54/12/2 55/12/2
f 50/12/2 51/12/2 55/12/2
f 49/12/2 50/12/2 55/12/2
f 41/12/2 49/12/2 55/12/2
f 55/12/2 54/12/2 56/12/2
f 56/12/2 54/12/2 57/12/2
f 57/12/2 54/12/2 58/12/2
f 58/12/2 54/12/2 59/12/2
f 54/12/2 42/12/2 60/12/2
f 59/12/2 54/12/2 60/12/2
f 41/12/2 55/12/2 61/12/2
f 55/10/2 56/10/2 61/10/2
f 56/12/2 57/12/2 62/12/2
f 61/10/2 56/10/2 62/10/2
f 57/10/2 58/10/2 63/10/2
f 62/12/2 57/12/2 63/12/2
f 58/12/2 59/12/2 64/12/2
f 63/10/2 58/10/2 64/10/2
f 59/10/2 60/10/2 65/10/2
f 64/12/2 59/12/2 65/12/2
f 60/12/2 42/12/2 66/12/2
f 65/10/2 60/10/2 66/10/2
f 62/12/2 63/12/2 67/12/2
f 64/12/2 65/12/2 67/12/2
f 65/12/2 66/12/2 67/12/2
f 61/12/2 62/12/2 67/12/2
f 41/12/2 61/12/2 67/12/2
f 63/12/2 64/12/2 67/12/2
f 67/12/2 66/12/2 68/12/2
f 68/12/2 66/12/2 69/12/2
f 69/12/2 66/12/2 70/12/2
f 70/12/2 66/12/2 71/12/2
f 71/12/2 66/12/2 72/12/2
f 66/12/2 42/12/2 73/12/2
f 72/12/2 66/12/2 73/12/2
f 71/10/2 72/10/2 74/10/2
f 72/8/2 73/8/2 74/8/2
f 73/12/2 42/12/2 75/12/2
f 74/8/2 73/8/2 75/8/2
f 41/12/2 67/12/2 76/12/2
f 67/10/2 68/10/2 76/10/2
f 68/12/2 69/12/2 77/12/2
f 76/10/2 68/10/2 77/10/2
f 69/10/2 70/10/2 78/10/2
f 77/12/2 69/12/2 78/12/2
f 70/12/2 71/12/2 79/12/2
f 78/10/2 70/10/2 79/10/2
f 71/10/2 74/10/2 80/10/2
f 79/12/2 71/12/2 80/12/2
f 74/10/2 75/10/2 80/10/2
f 75/12/2 42/12/2 81/12/2
f 80/10/2 75/10/2 81/10/2
f 78/12/2 79/12/2 82/12/2
f 79/12/2 80/12/2 82/12/2
f 80/12/2 81/12/2 82/12/2
f 76/12/2 77/12/2 82/12/2
f 41/12/2 76/12/2 82/12/2
f 77/12/2 78/12/2 82/12/2
f 81/12/2 42/12/2 83/12/2
f 82/12/2 81/12/2 83/12/2
f 86/12/3 85/12/3 84/12/3
f 87/12/3 85/12/3 86/12/3
f 88/12/3 85/12/3 87/12/3
f 89/12/3 85/12/3 88/12/3
f 90/12/3 85/12/3 89/12/3
f 91/12/3 85/12/3 90/12/3
f 92/12/3 86/12/3 84/12/3
f 92/8/3 87/8/3 86/8/3
f 93/12/3 88/12/3 87/12/3
f 93/8/3 87/8/3 92/8/3
f 94/8/3 89/8/3 88/8/3
f 94/12/3 88/12/3 93/12/3
f 95/12/3 90/12/3 89/12/3
f 95/8/3 89/8/3 94/8/3
f 96/8/3 91/8/3 90/8/3
f 96/12/3 90/12/3 95/12/3
f 97/12/3 85/12/3 91/12/3
f 97/8/3 91/8/3 96/8/3
f 98/12/3 96/12/3 95/12/3
f 98/12/3 95/12/3 94/12/3
f 98/12/3 97/12/3 96/12/3
f 98/12/3 94/12/3 93/12/3
f 98/12/3 93/12/3 92/12/3
f 98/12/3 92/12/3 84/12/3
f 99/12/3 97/12/3 98/12/3
f 100/12/3 97/12/3 99/12/3
f 101/12/3 97/12/3 100/12/3
f 102/12/3 97/12/3 101/12/3
f 103/12/3 85/12/3 97/12/3
f 103/12/3 97/12/3 102/12/3
f 104/12/3 98/12/3 84/12/3
f 104/8/3 99/8/3 98/8/3
f 105/12/3 100/12/3 99/12/3
f 105/8/3 99/8/3 104/8/3
f 106/8/3 101/8/3 100/8/3
f 106/12/3 100/12/3 105/12/3
f 107/12/3 102/12/3 101/12/3
f 107/8/3 101/8/3 106/8/3
f 108/8/3 103/8/3 102/8/3
f 108/12/3 102/12/3 107/12/3
f 109/12/3 85/12/3 103/12/3
f 109/8/3 103/8/3 108/8/3
f 110/12/3 106/12/3 105/12/3
f 110/12/3 108/12/3 107/12/3
f 110/12/3 109/12/3 108/12/3
f 110/12/3 105/12/3 104/12/3
f 110/12/3 104/12/3 84/12/3
f 110/12/3 107/12/3 106/12/3
f 111/12/3 109/12/3 110/12/3
f 112/12/3 109/12/3 111/12/3
f 113/12/3 109/12/3 112/12/3
f 114/12/3 109/12/3 113/12/3
f 115/12/3 85/12/3 109/12/3
f 115/12/3 109/12/3 114/12/3
f 116/12/3 110/12/3 84/12/3
f 116/8/3 111/8/3 110/8/3
f 117/12/3 112/12/3 111/12/3
f 117/8/3 111/8/3 116/8/3
f 118/8/3 113/8/3 112/8/3
f 118/12/3 112/12/3 117/12/3
f 119/12/3 114/12/3 113/12/3
f 119/8/3 113/8/3 118/8/3
f 120/8/3 115/8/3 114/8/3
f 120/12/3 114/12/3 119/12/3
f 121/12/3 85/12/3 115/12/3
f 121/8/3 115/8/3 120/8/3
f 122/12/3 118/12/3 117/12/3
f 122/12/3 120/12/3 119/12/3
f 122/12/3 121/12/3 120/12/3
f 122/12/3 117/12/3 116/12/3
f 122/12/3 116/12/3 84/12/3
f 122/12/3 119/12/3 118/12/3
f 123/12/3 85/12/3 121/12/3
f 123/12/3 121/12/3 122/12/3
f 124/12/4 125/12/4 126/12/4
f 126/12/4 125/12/4 127/12/4
f 127/12/4 125/12/4 128/12/4
f 128/12/4 125/12/4 129/12/4
f 129/12/4 125/12/4 130/12/4
f 130/12/4 125/12/4 131/12/4
f 124/12/4 126/12/4 132/12/4
f 126/4/4 127/4/4 132/4/4
f 127/12/4 128/12/4 133/12/4
f 132/4/4 127/4/4 133/4/4
f 128/4/4 129/4/4 134/4/4
f 133/12/4 128/12/4 134/12/4
f 129/12/4 130/12/4 135/12/4
f 134/4/4 129/4/4 135/4/4
f 130/4/4 131/4/4 136/4/4
f 135/12/4 130/12/4 136/12/4
f 131/12/4 125/12/4 137/12/4
f 136/4/4 131/4/4 137/4/4
f 135/12/4 136/12/4 138/12/4
f 134/12/4 135/12/4 138/12/4
f 136/12/4 137/12/4 138/12/4
f 133/12/4 134/12/4 138/12/4
f 132/12/4 133/12/4 138/12/4
f 124/12/4 132/12/4 138/12/4
f 138/12/4 137/12/4 139/12/4
f 139/12/4 137/12/4 140/12/4
f 140/12/4 137/12/4 141/12/4
f 141/12/4 137/12/4 142/12/4
f 137/12/4 125/12/4 143/12/4
f 142/12/4 137/12/4 143/12/4
f 124/12/4 138/12/4 144/12/4
f 138/4/4 139/4/4 144/4/4
f 139/12/4 140/12/4 145/12/4
f 144/4/4 139/4/4 145/4/4
f 140/4/4 141/4/4 146/4/4
f 145/12/4 140/12/4 146/12/4
f 141/12/4 142/12/4 147/12/4
f 146/4/4 141/4/4 147/4/4
f 142/4/4 143/4/4 148/4/4
f 147/12/4 142/12/4 148/12/4
f 143/12/4 125/12/4 149/12/4
f 148/4/4 143/4/4 149/4/4
f 145/12/4 146/12/4 150/12/4
f 147/12/4 148/12/4 150/12/4
f 148/12/4 149/12/4 150/12/4
f 144/12/4 145/12/4 150/12/4
f 124/12/4 144/12/4 150/12/4
f 146/12/4 147/12/4 150/12/4
f 150/12/4 149/12/4 151/12/4
f 151/12/4 149/12/4 152/12/4
f 152/12/4 149/12/4 153/12/4
f 153/12/4 149/12/4 154/12/4
f 149/12/4 125/12/4 155/12/4
f 154/12/4 149/12/4 155/12/4
f 124/12/4 150/12/4 156/12/4
f 150/4/4 151/4/4 156/4/4
f 151/12/4 152/12/4 157/12/4
f 156/4/4 151/4/4 157/4/4
f 152/4/4 153/4/4 158/4/4
f 157/12/4 152/12/4 158/12/4
f 153/12/4 154/12/4 159/12/4
f 158/4/4 153/4/4 159/4/4
f 154/4/4 155/4/4 160/4/4
f 159/12/4 154/12/4 160/12/4
f 155/12/4 125/12/4 161/12/4
f 160/4/4 155/4/4 161/4/4
f 157/12/4 158/12/4 162/12/4
f 159/12/4 160/12/4 162/12/4
f 160/12/4 161/12/4 162/12/4
f 156/12/4 157/12/4 162/12/4
f 124/12/4 156/12/4 162/12/4
f 158/12/4 159/12/4 162/12/4
f 161/12/4 125/12/4 163/12/4
f 162/12/4 161/12/4 163/12/4
f 166/12/5 165/12/5 164/12/5
f 167/12/5 165/12/5 166/12/5
f 168/12/5 165/12/5 167/12/5
f 169/12/5 165/12/5 168/12/5
f 170/12/5 165/12/5 169/12/5
f 171/12/5 165/12/5 170/12/5
f 172/12/5 166/12/5 164/12/5
f 172/3/5 167/3/5 166/3/5
f 173/12/5 168/12/5 167/12/5
f 173/3/5 167/3/5 172/3/5
f 174/3/5 169/3/5 168/3/5
f 174/12/5 168/12/5 173/12/5
f 175/12/5 170/12/5 169/12/5
f 175/3/5 169/3/5 174/3/5
f 176/3/5 171/3/5 170/3/5
f 176/12/5 170/12/5 175/12/5
f 177/12/5 165/12/5 171/12/5
f 177/3/5 171/3/5 176/3/5
f 178/12/5 176/12/5 175/12/5
f 178/12/5 175/12/5 174/12/5
f 178/12/5 177/12/5 176/12/5
f 178/12/5 174/12/5 173/12/5
f 178/12/5 173/12/5 172/12/5
f 178/12/5 172/12/5 164/12/5
f 179/12/5 177/12/5 178/12/5
f 180/12/5 177/12/5 179/12/5
f 181/12/5 177/12/5 180/12/5
f 182/12/5 177/12/5 181/12/5
f 183/12/5 165/12/5 177/12/5
f 183/12/5 177/12/5 182/12/5
f 184/12/5 178/12/5 164/12/5
f 184/3/5 179/3/5 178/3/5
f 185/12/5 180/12/5 179/12/5
f 185/3/5 179/3/5 184/3/5
f 186/3/5 181/3/5 180/3/5
f 186/12/5 180/12/5 185/12/5
f 187/12/5 182/12/5 181/12/5
f 187/3/5 181/3/5 186/3/5
f 188/3/5 183/3/5 182/3/5
f 188/12/5 182/12/5 187/12/5
f 189/12/5 165/12/5 183/12/5
f 189/3/5 183/3/5 188/3/5
f 190/12/5 186/12/5 185/12/5
f 190/12/5 188/12/5 187/12/5
f 190/12/5 189/12/5 188/12/5
f 190/12/5 185/12/5 184/12/5
f 190/12/5 184/12/5 164/12/5
f 190/12/5 187/12/5 186/12/5
f 191/12/5 189/12/5 190/12/5
f 192/12/5 189/12/5 191/12/5
f 193/12/5 189/12/5 192/12/5
f 194/12/5 189/12/5 193/12/5
f 195/12/5 165/12/5 189/12/5
f 195/12/5 189/12/5 194/12/5
f 196/12/5 190/12/5 164/12/5
f 196/3/5 191/3/5 190/3/5
f 197/12/5 192/12/5 191/12/5
f 197/3/5 191/3/5 196/3/5
f 198/3/5 193/3/5 192/3/5
f 198/12/5 192/12/5 197/12/5
f 199/12/5 194/12/5 193/12/5
f 199/3/5 193/3/5 198/3/5
f 200/3/5 195/3/5 194/3/5
f 200/12/5 194/12/5 199/12/5
f 201/12/5 165/12/5 195/12/5
f 201/3/5 195/3/5 200/3/5
f 202/12/5 198/12/5 197/12/5
f 202/12/5 200/12/5 199/12/5
f 202/12/5 201/12/5 200/12/5
f 202/12/5 197/12/5 196/12/5
f 202/12/5 196/12/5 164/12/5
f 202/12/5 199/12/5 198/12/5
f 203/12/5 165/12/5 201/12/5
f 203/12/5 201/12/5 202/12/5
f 204/12/6 205/12/6 206/12/6
f 206/12/6 205/12/6 207/12/6
f 207/12/6 205/12/6 208/12/6
f 208/12/6 205/12/6 209/12/6
f 209/12/6 205/12/6 210/12/6
f 210/12/6 205/12/6 211/12/6
f 204/12/6 206/12/6 212/12/6
f 206/11/6 207/11/6 212/11/6
f 207/12/6 208/12/6 213/12/6
f 212/11/6 207/11/6 213/11/6
f 208/11/6 209/11/6 214/11/6
f 213/12/6 208/12/6 214/12/6
f 209/12/6 210/12/6 215/12/6
f 214/11/6 209/11/6 215/11/6
f 210/11/6 211/11/6 216/11/6
f 215/12/6 210/12/6 216/12/6
f 211/12/6 205/12/6 217/12/6
f 216/11/6 211/11/6 217/11/6
f 215/12/6 216/12/6 218/12/6
f 214/12/6 215/12/6 218/12/6
f 216/12/6 217/12/6 218/12/6
f 213/12/6 214/12/6 218/12/6
f 212/12/6 213/12/6 218/12/6
f 204/12/6 212/12/6 218/12/6
f 218/12/6 217/12/6 219/12/6
f 219/12/6 217/12/6 220/12/6
f 220/12/6 217/12/6 221/12/6
f 221/12/6 217/12/6 222/12/6
f 217/12/6 205/12/6 223/12/6
f 222/12/6 217/12/6 223/12/6
f 204/12/6 218/12/6 224/12/6
f 218/11/6 219/11/6 224/11/6
f 219/12/6 220/12/6 225/12/6
f 224/11/6 219/11/6 225/11/6
f 220/11/6 221/11/6 226/11/6
f 225/12/6 220/12/6 226/12/6
f 221/12/6 222/12/6 227/12/6
f 226/11/6 221/11/6 227/11/6
f 222/11/6 223/11/6 228/11/6
f 227/12/6 222/12/6 228/12/6
f 223/12/6 205/12/6 229/12/6
f 228/11/6 223/11/6 229/11/6
f 225/12/6 226/12/6 230/12/6
f 227/12/6 228/12/6 230/12/6
f 228/12/6 229/12/6 230/12/6
f 224/12/6 225/12/6 230/12/6
f 204/12/6 224/12/6 230/12/6
f 226/12/6 227/12/6 230/12/6
f 230/12/6 229/12/6 231/12/6
f 231/12/6 229/12/6 232/12/6
f 232/12/6 229/12/6 233/12/6
f 233/12/6 229/12/6 234/12/6
f 229/12/6 205/12/6 235/12/6
f 234/12/6 229/12/6 235/12/6
f 204/12/6 230/12/6 236/12/6
f 230/11/6 231/11/6 236/11/6
f 231/12/6 232/12/6 237/12/6
f 236/11/6 231/11/6 237/11/6
f 232/11/6 233/11/6 238/11/6
f 237/12/6 232/12/6 238/12/6
f 233/12/6 234/12/6 239/12/6
f 238/11/6 233/11/6 239/11/6
f 234/11/6 235/11/6 240/11/6
f 239/12/6 234/12/6 240/12/6
f 235/12/6 205/12/6 241/12/6
f 240/11/6 235/11/6 241/11/6
f 237/12/6 238/12/6 242/12/6
f 239/12/6 240/12/6 242/12/6
f 240/12/6 241/12/6 242/12/6
f 236/12/6 237/12/6 242/12/6
f 204/12/6 236/12/6 242/12/6
f 238/12/6 239/12/6 242/12/6
f 241/12/6 205/12/6 243/12/6
f 242/12/6 241/12/6 243/12/6
